<svg xmlns="http://www.w3.org/2000/svg" viewBox="0 0 1536 1024" role="img" width="1536" height="1024">
  <title>Gaming Industry in South Korea — Atlas Banner</title>
  <defs>
    <linearGradient id="parchment" x1="0" y1="0" x2="1" y2="1">
      <stop offset="0%" stop-color="#e8dfc8" />
      <stop offset="100%" stop-color="#d4c9a8" />
    </linearGradient>
    <linearGradient id="sea" x1="0" y1="0" x2="1" y2="1">
      <stop offset="0%" stop-color="#b8cdd8" />
      <stop offset="100%" stop-color="#9db8c8" />
    </linearGradient>
    <linearGradient id="landgrad" x1="0" y1="0" x2="0" y2="1">
      <stop offset="0%" stop-color="#c8b98a" />
      <stop offset="100%" stop-color="#b8a878" />
    </linearGradient>
    <filter id="engrave" x="-5%" y="-5%" width="110%" height="110%">
      <feTurbulence type="fractalNoise" baseFrequency="0.9" numOctaves="4" result="noise" />
      <feColorMatrix type="saturate" values="0" in="noise" result="grayNoise" />
      <feBlend in="SourceGraphic" in2="grayNoise" mode="multiply" result="blended" />
      <feComponentTransfer in="blended">
        <feFuncA type="linear" slope="1" />
      </feComponentTransfer>
    </filter>
    <pattern id="gridPat" width="60" height="60" patternUnits="userSpaceOnUse">
      <path d="M60 0 L0 0 0 60" fill="none" stroke="#b8a870" stroke-width="0.5" opacity="0.4" />
    </pattern>
    <pattern id="latlon" width="120" height="80" patternUnits="userSpaceOnUse">
      <path d="M0 40 L1536 40 M60 0 L60 1024" fill="none" stroke="#a09060" stroke-width="0.4" opacity="0.25" />
    </pattern>
  </defs>

  
  <rect width="1536" height="1024" fill="url(#sea)" />
  
  <rect width="1536" height="1024" fill="url(#parchment)" opacity="0.55" />
  
  <rect width="1536" height="1024" fill="url(#gridPat)" />

  
  
  <line x1="0" y1="200" x2="1536" y2="200" stroke="#8a7a50" stroke-width="0.6" opacity="0.3" />
  <line x1="0" y1="400" x2="1536" y2="400" stroke="#8a7a50" stroke-width="0.6" opacity="0.3" />
  <line x1="0" y1="600" x2="1536" y2="600" stroke="#8a7a50" stroke-width="0.6" opacity="0.3" />
  <line x1="0" y1="800" x2="1536" y2="800" stroke="#8a7a50" stroke-width="0.6" opacity="0.3" />
  
  <line x1="200" y1="0" x2="200" y2="1024" stroke="#8a7a50" stroke-width="0.6" opacity="0.3" />
  <line x1="500" y1="0" x2="500" y2="1024" stroke="#8a7a50" stroke-width="0.6" opacity="0.3" />
  <line x1="800" y1="0" x2="800" y2="1024" stroke="#8a7a50" stroke-width="0.6" opacity="0.3" />
  <line x1="1100" y1="0" x2="1100" y2="1024" stroke="#8a7a50" stroke-width="0.6" opacity="0.3" />
  <line x1="1400" y1="0" x2="1400" y2="1024" stroke="#8a7a50" stroke-width="0.6" opacity="0.3" />

  
  <line x1="0" y1="50" x2="400" y2="50" stroke="#7a9aaa" stroke-width="0.5" opacity="0.3" />
  <line x1="0" y1="70" x2="350" y2="70" stroke="#7a9aaa" stroke-width="0.5" opacity="0.3" />
  <line x1="0" y1="90" x2="300" y2="90" stroke="#7a9aaa" stroke-width="0.5" opacity="0.3" />
  <line x1="1100" y1="900" x2="1536" y2="900" stroke="#7a9aaa" stroke-width="0.5" opacity="0.3" />
  <line x1="1150" y1="920" x2="1536" y2="920" stroke="#7a9aaa" stroke-width="0.5" opacity="0.3" />
  <line x1="1200" y1="940" x2="1536" y2="940" stroke="#7a9aaa" stroke-width="0.5" opacity="0.3" />

  
  <path d="M0 0 L600 0 L650 80 L680 180 L720 280 L700 380 L680 460 L700 540 L680 620 L640 700 L600 780 L560 860 L520 1024 L0 1024 Z" fill="#c8b98a" stroke="#a09060" stroke-width="1.5" opacity="0.7" />

  
  <path d="M1100 80 L1130 60 L1160 80 L1155 130 L1140 170 L1120 200 L1095 210 L1080 180 L1085 130 Z" fill="#c8b98a" stroke="#a09060" stroke-width="1.2" opacity="0.65" />
  <path d="M1090 230 L1120 215 L1145 230 L1160 280 L1165 350 L1155 420 L1140 480 L1120 530 L1095 560 L1070 550 L1055 500 L1060 430 L1065 360 L1070 290 Z" fill="#c8b98a" stroke="#a09060" stroke-width="1.2" opacity="0.65" />
  <path d="M1070 580 L1095 565 L1115 575 L1125 620 L1120 660 L1100 680 L1080 670 L1065 640 L1060 600 Z" fill="#c8b98a" stroke="#a09060" stroke-width="1.2" opacity="0.65" />
  <path d="M1060 700 L1082 690 L1100 700 L1105 740 L1095 770 L1075 775 L1055 760 L1050 730 Z" fill="#c8b98a" stroke="#a09060" stroke-width="1.2" opacity="0.65" />

  
  
  <path d="M720 340 L770 300 L830 285 L890 290 L940 310 L960 350 L955 400 L940 440 L920 470 L890 490 L860 495 L840 510 L820 520 L800 510 L780 490 L760 460 L740 430 L725 400 Z" fill="#b8a060" stroke="#7a6a30" stroke-width="2" opacity="0.85" />
  
  <path d="M780 490 L800 510 L820 520 L840 510 L860 495 L890 490 L920 470 L935 500 L940 540 L930 580 L910 620 L880 660 L850 700 L820 730 L800 760 L780 790 L760 760 L740 720 L720 680 L705 640 L700 600 L705 560 L715 520 L740 500 Z" fill="#c8aa50" stroke="#7a6a30" stroke-width="2.5" />

  
  <ellipse cx="760" cy="850" rx="35" ry="20" fill="#c8aa50" stroke="#7a6a30" stroke-width="1.5" />

  
  <text x="530" y="580" font-family="Georgia, serif" font-size="16" fill="#5a6a78" opacity="0.7" font-style="italic" letter-spacing="3">YELLOW SEA</text>
  
  <text x="990" y="500" font-family="Georgia, serif" font-size="14" fill="#5a6a78" opacity="0.7" font-style="italic" letter-spacing="2">SEA OF</text>
  <text x="988" y="522" font-family="Georgia, serif" font-size="14" fill="#5a6a78" opacity="0.7" font-style="italic" letter-spacing="2">JAPAN</text>

  
  <circle cx="820" cy="545" r="10" fill="#8b2020" stroke="#5a1010" stroke-width="1.5" />
  <circle cx="820" cy="545" r="5" fill="#e03030" />
  <line x1="820" y1="535" x2="820" y2="510" stroke="#5a1010" stroke-width="1.5" />
  <text x="833" y="545" font-family="Georgia, serif" font-size="14" fill="#3a1a1a" font-weight="bold">SEOUL</text>

  
  <g transform="translate(790, 600) scale(0.55)" opacity="0.9">
    
    <path d="M-90 -30 Q-90 -60 -60 -60 L60 -60 Q90 -60 90 -30 L90 30 Q90 60 60 75 L40 80 Q20 85 0 85 Q-20 85 -40 80 L-60 75 Q-90 60 -90 30 Z" fill="#5a3a1a" stroke="#3a2010" stroke-width="3" />
    
    <ellipse cx="-65" cy="50" rx="25" ry="35" fill="#4a2e12" stroke="#3a2010" stroke-width="2" />
    
    <ellipse cx="65" cy="50" rx="25" ry="35" fill="#4a2e12" stroke="#3a2010" stroke-width="2" />
    
    <rect x="-75" y="-20" width="18" height="40" rx="3" fill="#c8aa50" stroke="#8a7030" stroke-width="1" />
    
    <rect x="-84" y="-9" width="36" height="18" rx="3" fill="#c8aa50" stroke="#8a7030" stroke-width="1" />
    
    <circle cx="55" cy="-10" r="9" fill="#8b2020" stroke="#5a1010" stroke-width="1.5" />
    <circle cx="75" cy="5" r="9" fill="#7a6a20" stroke="#4a4010" stroke-width="1.5" />
    <circle cx="55" cy="20" r="9" fill="#2a5a2a" stroke="#1a3a1a" stroke-width="1.5" />
    <circle cx="35" cy="5" r="9" fill="#2a3a6a" stroke="#1a2a4a" stroke-width="1.5" />
    
    <circle cx="0" cy="-5" r="10" fill="#7a6a50" stroke="#5a4a30" stroke-width="1.5" />
    
    <rect x="-15" y="-25" width="12" height="8" rx="2" fill="#9a8a60" stroke="#6a5a30" stroke-width="1" />
    <rect x="3" y="-25" width="12" height="8" rx="2" fill="#9a8a60" stroke="#6a5a30" stroke-width="1" />
  </g>

  
  <g transform="translate(870, 430) scale(0.45)" opacity="0.85">
    <rect x="-70" y="-50" width="140" height="95" rx="8" fill="#3a2e1a" stroke="#2a1e0a" stroke-width="3" />
    <rect x="-60" y="-40" width="120" height="75" rx="4" fill="#1a2a3a" />
    
    <rect x="-55" y="-35" width="110" height="65" rx="3" fill="#0a1a2a" opacity="0.8" />
    
    <rect x="-40" y="-20" width="8" height="8" fill="#e0a020" />
    <rect x="-28" y="-25" width="6" height="6" fill="#e0a020" />
    <rect x="-18" y="-15" width="8" height="8" fill="#e0a020" />
    <rect x="10" y="-22" width="6" height="6" fill="#20a0e0" />
    <rect x="22" y="-18" width="8" height="8" fill="#20a0e0" />
    <rect x="35" y="-25" width="6" height="6" fill="#20a0e0" />
    
    <rect x="-40" y="15" width="60" height="5" rx="2" fill="#e03030" />
    <rect x="5" y="15" width="30" height="5" rx="2" fill="#30e030" />
    
    <rect x="-8" y="45" width="16" height="20" rx="2" fill="#3a2e1a" stroke="#2a1e0a" stroke-width="2" />
    <rect x="-25" y="63" width="50" height="8" rx="3" fill="#3a2e1a" stroke="#2a1e0a" stroke-width="2" />
  </g>

  
  <g transform="translate(700, 680) scale(0.4)" opacity="0.8">
    <path d="M-30 -60 L30 -60 L30 -10 Q30 30 0 40 Q-30 30 -30 -10 Z" fill="#c8a020" stroke="#8a6a10" stroke-width="2" />
    <path d="M-30 -50 Q-70 -50 -70 -20 Q-70 10 -35 15" fill="none" stroke="#c8a020" stroke-width="8" stroke-linecap="round" />
    <path d="M30 -50 Q70 -50 70 -20 Q70 10 35 15" fill="none" stroke="#c8a020" stroke-width="8" stroke-linecap="round" />
    <rect x="-10" y="40" width="20" height="20" fill="#c8a020" stroke="#8a6a10" stroke-width="2" />
    <rect x="-30" y="58" width="60" height="10" rx="3" fill="#c8a020" stroke="#8a6a10" stroke-width="2" />
    
    <polygon points="0,-40 5,-25 20,-25 8,-15 13,-0 0,-10 -13,-0 -8,-15 -20,-25 -5,-25" fill="#f0d050" />
  </g>

  
  <g transform="translate(1380, 160)">
    
    <circle cx="0" cy="0" r="75" fill="none" stroke="#8a7a50" stroke-width="2" opacity="0.6" />
    <circle cx="0" cy="0" r="70" fill="#e8dfc8" stroke="#8a7a50" stroke-width="1" opacity="0.7" />
    
    
    <polygon points="0,-65 -12,-35 0,-45 12,-35" fill="#8b2020" />
    <polygon points="0,-65 -12,-35 0,-45 12,-35" fill="#8b2020" transform="rotate(180)" />
    
    <polygon points="0,-65 -12,-35 0,-45 12,-35" fill="#6a5a30" transform="rotate(90)" />
    
    <polygon points="0,-65 -12,-35 0,-45 12,-35" fill="#6a5a30" transform="rotate(270)" />
    
    <polygon points="0,-50 -7,-28 0,-35 7,-28" fill="#a09060" transform="rotate(45)" />
    <polygon points="0,-50 -7,-28 0,-35 7,-28" fill="#a09060" transform="rotate(135)" />
    <polygon points="0,-50 -7,-28 0,-35 7,-28" fill="#a09060" transform="rotate(225)" />
    <polygon points="0,-50 -7,-28 0,-35 7,-28" fill="#a09060" transform="rotate(315)" />
    
    <circle cx="0" cy="0" r="8" fill="#c8a020" stroke="#8a6a10" stroke-width="1.5" />
    <circle cx="0" cy="0" r="4" fill="#8a6a10" />
    
    <text x="0" y="-78" font-family="Georgia, serif" font-size="16" fill="#3a2a10" text-anchor="middle" font-weight="bold">N</text>
    <text x="0" y="95" font-family="Georgia, serif" font-size="14" fill="#3a2a10" text-anchor="middle">S</text>
    <text x="90" y="5" font-family="Georgia, serif" font-size="14" fill="#3a2a10" text-anchor="middle">E</text>
    <text x="-88" y="5" font-family="Georgia, serif" font-size="14" fill="#3a2a10" text-anchor="middle">W</text>
  </g>

  
  <rect x="24" y="24" width="1488" height="976" fill="none" stroke="#8a7a50" stroke-width="3" opacity="0.6" />
  <rect x="34" y="34" width="1468" height="956" fill="none" stroke="#8a7a50" stroke-width="1" opacity="0.4" />
  
  <path d="M24 24 L80 24 M24 24 L24 80" fill="none" stroke="#6a5a30" stroke-width="3" />
  <path d="M1512 24 L1456 24 M1512 24 L1512 80" fill="none" stroke="#6a5a30" stroke-width="3" />
  <path d="M24 1000 L80 1000 M24 1000 L24 944" fill="none" stroke="#6a5a30" stroke-width="3" />
  <path d="M1512 1000 L1456 1000 M1512 1000 L1512 944" fill="none" stroke="#6a5a30" stroke-width="3" />

  
  <g transform="translate(1200, 900)">
    <rect x="0" y="0" width="200" height="12" fill="none" stroke="#6a5a30" stroke-width="1.5" />
    <rect x="0" y="0" width="50" height="12" fill="#6a5a30" />
    <rect x="100" y="0" width="50" height="12" fill="#6a5a30" />
    <text x="0" y="28" font-family="Georgia, serif" font-size="12" fill="#3a2a10" text-anchor="middle">0</text>
    <text x="100" y="28" font-family="Georgia, serif" font-size="12" fill="#3a2a10" text-anchor="middle">500</text>
    <text x="200" y="28" font-family="Georgia, serif" font-size="12" fill="#3a2a10" text-anchor="middle">1000 km</text>
  </g>

  
  <rect x="60" y="60" width="620" height="280" rx="6" fill="#2a1e0a" opacity="0.78" />
  <rect x="65" y="65" width="610" height="270" rx="4" fill="none" stroke="#c8a020" stroke-width="1.5" opacity="0.6" />

  
  <line x1="90" y1="105" x2="650" y2="105" stroke="#c8a020" stroke-width="1" opacity="0.5" />
  <line x1="90" y1="300" x2="650" y2="300" stroke="#c8a020" stroke-width="1" opacity="0.5" />

  
  <text x="100" y="95" font-family="Georgia, serif" font-size="14" fill="#c8a020" letter-spacing="4" opacity="0.9">CULTURE &amp; SOCIETY</text>

  
  <text x="100" y="165" font-family="Georgia, serif" font-size="58" fill="#f0e8d0" font-weight="bold" letter-spacing="-1">Gaming</text>
  <text x="100" y="225" font-family="Georgia, serif" font-size="58" fill="#f0e8d0" font-weight="bold" letter-spacing="-1">Industry in</text>
  <text x="100" y="285" font-family="Georgia, serif" font-size="58" fill="#c8a020" font-weight="bold" letter-spacing="-1">South Korea</text>

  
  <rect x="60" y="360" width="560" height="42" rx="4" fill="#2a1e0a" opacity="0.65" />
  <text x="90" y="387" font-family="Georgia, serif" font-size="15" fill="#d4c090" letter-spacing="1">Nexon · NCSoft · Krafton · Smilegate</text>

  
  
  <g transform="translate(855, 570)" opacity="0.6">
    <line x1="0" y1="-15" x2="0" y2="15" stroke="#6a5a30" stroke-width="3" stroke-linecap="round" />
    <line x1="-8" y1="-5" x2="8" y2="-5" stroke="#6a5a30" stroke-width="2" stroke-linecap="round" />
    <polygon points="0,-15 -3,-8 3,-8" fill="#8a6a30" />
  </g>

  
  <g transform="translate(850, 650)" opacity="0.55">
    <circle cx="0" cy="0" r="18" fill="none" stroke="#8a7030" stroke-width="2" />
    <circle cx="0" cy="0" r="12" fill="none" stroke="#8a7030" stroke-width="1" />
    <line x1="-20" y1="0" x2="20" y2="0" stroke="#8a7030" stroke-width="1.5" />
    <line x1="0" y1="-20" x2="0" y2="20" stroke="#8a7030" stroke-width="1.5" />
  </g>

  
  <text x="950" y="640" font-family="Georgia, serif" font-size="13" fill="#5a4a20" font-style="italic" opacity="0.8">PC 방</text>
  <text x="944" y="656" font-family="Georgia, serif" font-size="11" fill="#5a4a20" opacity="0.7">(PC Bang)</text>

  
  <g transform="translate(1050, 750)" opacity="0.65">
    <rect x="-30" y="-35" width="60" height="45" rx="2" fill="#4a3a1a" stroke="#3a2a0a" stroke-width="1.5" />
    <rect x="-20" y="-25" width="12" height="12" rx="1" fill="#1a3a5a" />
    <rect x="8" y="-25" width="12" height="12" rx="1" fill="#1a3a5a" />
    <rect x="-8" y="-5" width="16" height="15" rx="1" fill="#2a1a0a" />
    <polygon points="0,-45 -38,-35 38,-35" fill="#5a4a1a" stroke="#3a2a0a" stroke-width="1.5" />
    <rect x="-40" y="10" width="80" height="6" rx="1" fill="#3a2a0a" />
    
    <line x1="0" y1="-55" x2="0" y2="-45" stroke="#8b2020" stroke-width="1.5" />
    <polygon points="0,-55 10,-51 0,-47" fill="#8b2020" />
  </g>
  <text x="1025" y="805" font-family="Georgia, serif" font-size="12" fill="#5a4a20" text-anchor="middle" opacity="0.75">Esports Arena</text>

  
  <g transform="translate(620, 720)" opacity="0.45">
    <ellipse cx="0" cy="-20" rx="18" ry="14" fill="#6a8a50" />
    <ellipse cx="-12" cy="-8" rx="14" ry="10" fill="#5a7a40" />
    <ellipse cx="12" cy="-8" rx="14" ry="10" fill="#5a7a40" />
    <rect x="-3" y="0" width="6" height="18" rx="2" fill="#6a4a20" />
  </g>
  <g transform="translate(645, 715)" opacity="0.35">
    <ellipse cx="0" cy="-15" rx="12" ry="10" fill="#6a8a50" />
    <rect x="-2" y="0" width="4" height="12" rx="1" fill="#6a4a20" />
  </g>

  
  <line x1="820" y1="545" x2="1380" y2="160" stroke="#8a7030" stroke-width="0.8" stroke-dasharray="6,8" opacity="0.3" />
  <line x1="820" y1="545" x2="350" y2="200" stroke="#8a7030" stroke-width="0.8" stroke-dasharray="6,8" opacity="0.2" />

  
  <circle cx="350" cy="200" r="8" fill="none" stroke="#8a7030" stroke-width="1.5" opacity="0.4" />
  <circle cx="350" cy="200" r="3" fill="#8a7030" opacity="0.4" />

  
  <rect x="24" y="970" width="1488" height="30" fill="#2a1e0a" opacity="0.4" />
  <text x="768" y="990" font-family="Georgia, serif" font-size="13" fill="#c8a020" text-anchor="middle" letter-spacing="3" opacity="0.8">REPUBLIC OF KOREA · GLOBAL GAMING POWERHOUSE</text>

</svg>