<svg xmlns="http://www.w3.org/2000/svg" viewBox="0 0 1536 1024" role="img" width="1536" height="1024">
  <title>Gyeongju — Ancient Capital of Silla and Korea's Museum Without Walls</title>
  <defs>
    <radialGradient id="bgGrad" cx="50%" cy="50%" r="70%">
      <stop offset="0%" stop-color="#e8dfc8" />
      <stop offset="100%" stop-color="#c9b98a" />
    </radialGradient>
    <radialGradient id="hillGrad" cx="50%" cy="30%" r="60%">
      <stop offset="0%" stop-color="#8a9e6b" />
      <stop offset="100%" stop-color="#5a7248" />
    </radialGradient>
    <pattern id="hatch" patternUnits="userSpaceOnUse" width="8" height="8" patternTransform="rotate(45)">
      <line x1="0" y1="0" x2="0" y2="8" stroke="#b8a870" stroke-width="0.5" opacity="0.4" />
    </pattern>
    <pattern id="crosshatch" patternUnits="userSpaceOnUse" width="10" height="10">
      <line x1="0" y1="5" x2="10" y2="5" stroke="#a89660" stroke-width="0.4" opacity="0.3" />
      <line x1="5" y1="0" x2="5" y2="10" stroke="#a89660" stroke-width="0.4" opacity="0.3" />
    </pattern>
    <filter id="tex" x="0%" y="0%" width="100%" height="100%">
      <feTurbulence type="fractalNoise" baseFrequency="0.65" numOctaves="3" result="noise" />
      <feColorMatrix type="saturate" values="0" in="noise" result="grayNoise" />
      <feBlend in="SourceGraphic" in2="grayNoise" mode="multiply" result="blend" />
      <feComposite in="blend" in2="SourceGraphic" operator="in" />
    </filter>
  </defs>

  
  <rect width="1536" height="1024" fill="url(#bgGrad)" />
  <rect width="1536" height="1024" fill="url(#hatch)" opacity="0.5" />

  
  <rect x="28" y="28" width="1480" height="968" fill="none" stroke="#7a6535" stroke-width="3" />
  <rect x="38" y="38" width="1460" height="948" fill="none" stroke="#7a6535" stroke-width="1" />
  <rect x="20" y="20" width="1496" height="984" fill="none" stroke="#5a4820" stroke-width="5" />

  
  
  <line x1="20" y1="20" x2="80" y2="20" stroke="#5a4820" stroke-width="3" />
  <line x1="20" y1="20" x2="20" y2="80" stroke="#5a4820" stroke-width="3" />
  <circle cx="20" cy="20" r="5" fill="#5a4820" />
  
  <line x1="1516" y1="20" x2="1456" y2="20" stroke="#5a4820" stroke-width="3" />
  <line x1="1516" y1="20" x2="1516" y2="80" stroke="#5a4820" stroke-width="3" />
  <circle cx="1516" cy="20" r="5" fill="#5a4820" />
  
  <line x1="20" y1="1004" x2="80" y2="1004" stroke="#5a4820" stroke-width="3" />
  <line x1="20" y1="1004" x2="20" y2="944" stroke="#5a4820" stroke-width="3" />
  <circle cx="20" cy="1004" r="5" fill="#5a4820" />
  
  <line x1="1516" y1="1004" x2="1456" y2="1004" stroke="#5a4820" stroke-width="3" />
  <line x1="1516" y1="1004" x2="1516" y2="944" stroke="#5a4820" stroke-width="3" />
  <circle cx="1516" cy="1004" r="5" fill="#5a4820" />

  
  <g opacity="0.9">
    
    <rect x="50" y="50" width="700" height="930" fill="#c5d8e8" opacity="0.5" rx="4" />
    
    <path d="M 350 80 L 420 100 L 500 110 L 560 130 L 600 170 L 620 220 L 630 280 L 610 350 L 590 420 L 570 480 L 550 540 L 530 590 L 510 640 L 490 680 L 470 720 L 450 760 L 440 800 L 445 840 L 430 870 L 410 890 L 390 870 L 375 840 L 370 800 L 360 760 L 340 720 L 320 680 L 300 640 L 280 600 L 260 550 L 245 500 L 240 440 L 250 380 L 260 320 L 270 270 L 290 210 L 320 160 L 350 120 Z" fill="#d4c89a" stroke="#8a7040" stroke-width="2" />
    
    <path d="M 320 200 Q 400 250 480 230" fill="none" stroke="#a89060" stroke-width="1" opacity="0.6" />
    <path d="M 300 320 Q 380 360 460 340" fill="none" stroke="#a89060" stroke-width="1" opacity="0.6" />
    <path d="M 290 430 Q 370 460 440 445" fill="none" stroke="#a89060" stroke-width="1" opacity="0.6" />
    
    <path d="M 500 150 L 520 130 L 540 150 L 560 120 L 585 145 L 605 130 L 620 155" fill="none" stroke="#7a6535" stroke-width="2" stroke-linejoin="round" />
    <path d="M 510 250 L 525 235 L 545 255 L 565 230 L 590 250" fill="none" stroke="#7a6535" stroke-width="1.5" stroke-linejoin="round" opacity="0.7" />
    
    <path d="M 420 680 Q 460 670 500 660 Q 540 650 570 640 Q 600 620 620 600" fill="none" stroke="#5a8ab0" stroke-width="3" opacity="0.8" />
    
    <circle cx="490" cy="650" r="12" fill="#8b2020" opacity="0.9" />
    <circle cx="490" cy="650" r="18" fill="none" stroke="#8b2020" stroke-width="2" opacity="0.7" />
    <circle cx="490" cy="650" r="5" fill="#f0d080" />
    
    <text x="515" y="645" font-family="Georgia, serif" font-size="14" fill="#3a2010" font-weight="bold">경주</text>
    <text x="515" y="662" font-family="Georgia, serif" font-size="11" fill="#3a2010">Gyeongju</text>
    
    <circle cx="380" cy="280" r="7" fill="#4a4a7a" opacity="0.8" />
    <text x="395" y="284" font-family="Georgia, serif" font-size="11" fill="#3a2010">Seoul</text>
    
    <circle cx="430" cy="570" r="6" fill="#4a4a7a" opacity="0.7" />
    <text x="443" y="574" font-family="Georgia, serif" font-size="10" fill="#3a2010">Daegu</text>
    
    <circle cx="460" cy="730" r="6" fill="#4a4a7a" opacity="0.7" />
    <text x="472" y="734" font-family="Georgia, serif" font-size="10" fill="#3a2010">Busan</text>
    
    <g transform="translate(120, 820)">
      <circle r="50" fill="#e8dfc8" stroke="#7a6535" stroke-width="1.5" />
      <circle r="44" fill="none" stroke="#7a6535" stroke-width="0.5" />
      
      <polygon points="0,-42 -6,-10 6,-10" fill="#5a4820" />
      <polygon points="0,42 -6,10 6,10" fill="#c0a860" />
      <polygon points="-42,0 -10,-6 -10,6" fill="#c0a860" />
      <polygon points="42,0 10,-6 10,6" fill="#c0a860" />
      
      <circle r="8" fill="#e8dfc8" stroke="#7a6535" stroke-width="1" />
      
      <text x="0" y="-52" font-family="Georgia, serif" font-size="14" fill="#3a2010" text-anchor="middle" font-weight="bold">N</text>
      <text x="0" y="66" font-family="Georgia, serif" font-size="12" fill="#3a2010" text-anchor="middle">S</text>
      <text x="56" y="4" font-family="Georgia, serif" font-size="12" fill="#3a2010" text-anchor="middle">E</text>
      <text x="-56" y="4" font-family="Georgia, serif" font-size="12" fill="#3a2010" text-anchor="middle">W</text>
    </g>
  </g>

  
  <line x1="720" y1="60" x2="720" y2="964" stroke="#7a6535" stroke-width="1.5" stroke-dasharray="8,6" />

  
  
  <g transform="translate(820, 200)">
    
    <ellipse cx="0" cy="230" rx="55" ry="15" fill="#9a8860" stroke="#6a5830" stroke-width="1.5" />
    
    <rect x="-38" y="50" width="76" height="175" rx="38" fill="#c8b878" stroke="#7a5830" stroke-width="2" />
    
    <line x1="-36" y1="80" x2="36" y2="80" stroke="#7a5830" stroke-width="1" opacity="0.6" />
    <line x1="-37" y1="110" x2="37" y2="110" stroke="#7a5830" stroke-width="1" opacity="0.6" />
    <line x1="-37" y1="140" x2="37" y2="140" stroke="#7a5830" stroke-width="1" opacity="0.6" />
    <line x1="-37" y1="170" x2="37" y2="170" stroke="#7a5830" stroke-width="1" opacity="0.6" />
    <line x1="-36" y1="200" x2="36" y2="200" stroke="#7a5830" stroke-width="1" opacity="0.6" />
    
    <rect x="-12" y="160" width="24" height="28" rx="2" fill="#5a4010" />
    
    <rect x="-42" y="42" width="84" height="16" rx="4" fill="#a89050" stroke="#6a5020" stroke-width="1.5" />
    
    <text x="0" y="265" font-family="Georgia, serif" font-size="13" fill="#5a3810" text-anchor="middle">Cheomseongdae</text>
    <text x="0" y="280" font-family="Georgia, serif" font-size="11" fill="#5a3810" text-anchor="middle" font-style="italic">Observatory · 7th c.</text>
  </g>

  
  <g transform="translate(1050, 350)">
    <ellipse cx="-60" cy="0" rx="85" ry="55" fill="#8a9e6b" stroke="#5a7040" stroke-width="1.5" />
    <ellipse cx="50" cy="10" rx="70" ry="48" fill="#7a9060" stroke="#5a7040" stroke-width="1.5" />
    <ellipse cx="-20" cy="-15" rx="55" ry="38" fill="#9aae7b" stroke="#5a7040" stroke-width="1.5" />
    
    <line x1="-160" y1="52" x2="140" y2="52" stroke="#7a6535" stroke-width="1" opacity="0.5" />
    
    <text x="-10" y="75" font-family="Georgia, serif" font-size="13" fill="#3a2010" text-anchor="middle">Royal Tumuli</text>
    <text x="-10" y="90" font-family="Georgia, serif" font-size="11" fill="#3a2010" text-anchor="middle" font-style="italic">Daereungwon</text>
  </g>

  
  <g transform="translate(1000, 620)">
    
    <rect x="-70" y="160" width="140" height="10" fill="#c8b878" stroke="#7a5830" stroke-width="1" />
    <rect x="-60" y="152" width="120" height="10" fill="#c8b878" stroke="#7a5830" stroke-width="1" />
    
    <rect x="-55" y="80" width="14" height="75" fill="#d4c090" stroke="#8a6840" stroke-width="1" />
    <rect x="41" y="80" width="14" height="75" fill="#d4c090" stroke="#8a6840" stroke-width="1" />
    
    <rect x="-25" y="100" width="50" height="55" rx="2" fill="#6a4820" stroke="#4a3010" stroke-width="1" />
    <circle cx="0" cy="127" r="2" fill="#c8a040" />
    
    <rect x="-62" y="70" width="124" height="12" fill="#b08040" stroke="#7a5020" stroke-width="1" />
    
    <path d="M -85 70 L 0 30 L 85 70 Z" fill="#6a7840" stroke="#3a4820" stroke-width="1.5" />
    <path d="M -85 70 L -90 76 L 90 76 L 85 70 Z" fill="#5a6830" stroke="#3a4820" stroke-width="1" />
    
    <line x1="-85" y1="70" x2="85" y2="70" stroke="#3a4820" stroke-width="1.5" />
    
    <path d="M -85 70 Q -95 68 -98 62" fill="none" stroke="#3a4820" stroke-width="1.5" />
    <path d="M 85 70 Q 95 68 98 62" fill="none" stroke="#3a4820" stroke-width="1.5" />
    
    <text x="0" y="195" font-family="Georgia, serif" font-size="13" fill="#3a2010" text-anchor="middle">Bulguksa Temple</text>
    <text x="0" y="210" font-family="Georgia, serif" font-size="11" fill="#3a2010" text-anchor="middle" font-style="italic">UNESCO · 528 CE</text>
  </g>

  
  <g transform="translate(1300, 500)">
    <rect x="-35" y="180" width="70" height="12" fill="#c0b080" stroke="#7a6030" stroke-width="1" />
    <rect x="-28" y="155" width="56" height="26" fill="#c8b878" stroke="#7a5830" stroke-width="1" />
    <rect x="-30" y="148" width="60" height="9" fill="#b0a060" stroke="#7a5830" stroke-width="1" />
    <rect x="-24" y="120" width="48" height="28" fill="#c8b878" stroke="#7a5830" stroke-width="1" />
    <rect x="-26" y="113" width="52" height="9" fill="#b0a060" stroke="#7a5830" stroke-width="1" />
    <rect x="-20" y="90" width="40" height="23" fill="#c8b878" stroke="#7a5830" stroke-width="1" />
    <rect x="-22" y="83" width="44" height="9" fill="#b0a060" stroke="#7a5830" stroke-width="1" />
    <rect x="-16" y="65" width="32" height="18" fill="#c8b878" stroke="#7a5830" stroke-width="1" />
    <rect x="-18" y="58" width="36" height="9" fill="#b0a060" stroke="#7a5830" stroke-width="1" />
    
    <line x1="0" y1="58" x2="0" y2="40" stroke="#7a6030" stroke-width="2" />
    <circle cx="0" cy="38" r="5" fill="#c8a040" stroke="#8a6020" stroke-width="1" />
    
    <text x="0" y="212" font-family="Georgia, serif" font-size="13" fill="#3a2010" text-anchor="middle">Seokgatap</text>
    <text x="0" y="227" font-family="Georgia, serif" font-size="11" fill="#3a2010" text-anchor="middle" font-style="italic">Stone Pagoda</text>
  </g>

  
  <g opacity="0.2" stroke="#7a6030" stroke-width="0.8">
    <line x1="50" y1="200" x2="700" y2="200" />
    <line x1="50" y1="400" x2="700" y2="400" />
    <line x1="50" y1="600" x2="700" y2="600" />
    <line x1="50" y1="800" x2="700" y2="800" />
    <line x1="200" y1="50" x2="200" y2="974" />
    <line x1="400" y1="50" x2="400" y2="974" />
    <line x1="600" y1="50" x2="600" y2="974" />
  </g>

  
  <rect x="730" y="60" width="780" height="130" fill="#c9b98a" opacity="0.6" />
  <rect x="730" y="60" width="780" height="130" fill="none" stroke="#7a6535" stroke-width="1" />

  <text x="1120" y="118" font-family="Georgia, serif" font-size="48" fill="#2a1a05" text-anchor="middle" font-weight="bold" letter-spacing="2">GYEONGJU</text>
  <text x="1120" y="145" font-family="Georgia, serif" font-size="16" fill="#5a3810" text-anchor="middle" letter-spacing="3">경주 · NORTH GYEONGSANG PROVINCE · KOREA</text>
  <line x1="780" y1="158" x2="1460" y2="158" stroke="#7a6535" stroke-width="1" />
  <text x="1120" y="177" font-family="Georgia, serif" font-size="14" fill="#5a3810" text-anchor="middle" font-style="italic" letter-spacing="1">Ancient Capital of Silla · Korea's Museum Without Walls</text>

  
  <g transform="translate(750, 920)">
    <rect x="0" y="0" width="760" height="60" fill="#c9b98a" opacity="0.5" rx="3" />
    <text x="380" y="22" font-family="Georgia, serif" font-size="12" fill="#3a2010" text-anchor="middle" letter-spacing="2">SILLA KINGDOM · 57 BCE – 935 CE · UNESCO WORLD HERITAGE SITE</text>
    
    <line x1="60" y1="45" x2="200" y2="45" stroke="#3a2010" stroke-width="2" />
    <line x1="60" y1="40" x2="60" y2="50" stroke="#3a2010" stroke-width="2" />
    <line x1="130" y1="40" x2="130" y2="50" stroke="#3a2010" stroke-width="2" />
    <line x1="200" y1="40" x2="200" y2="50" stroke="#3a2010" stroke-width="2" />
    <text x="95" y="58" font-family="Georgia, serif" font-size="10" fill="#3a2010" text-anchor="middle">50 km</text>
    
    <text x="580" y="45" font-family="Georgia, serif" font-size="11" fill="#5a3810" text-anchor="middle">35°51'N  129°13'E</text>
  </g>

  
  <rect x="28" y="28" width="1480" height="968" fill="url(#crosshatch)" opacity="0.3" />

</svg>