<svg xmlns="http://www.w3.org/2000/svg" viewBox="0 0 1536 1024" role="img" width="1536" height="1024">
  <title>Kim Young-sam — 14th President of South Korea (1993–1998) and civilian-led democratic consolidation</title>

  <defs>
    
    <linearGradient id="parchment" x1="0" y1="0" x2="1" y2="1">
      <stop offset="0%" stop-color="#e8dfc8" />
      <stop offset="50%" stop-color="#ddd3b0" />
      <stop offset="100%" stop-color="#c9bc96" />
    </linearGradient>
    
    <radialGradient id="vignette" cx="50%" cy="50%" r="70%">
      <stop offset="60%" stop-color="#00000000" />
      <stop offset="100%" stop-color="#00000055" />
    </radialGradient>
    
    <linearGradient id="sidepanel" x1="0" y1="0" x2="1" y2="0">
      <stop offset="0%" stop-color="#3d5a47" />
      <stop offset="100%" stop-color="#2e4438" />
    </linearGradient>
    
    <radialGradient id="sealGrad" cx="50%" cy="50%" r="50%">
      <stop offset="0%" stop-color="#c9a84c" />
      <stop offset="100%" stop-color="#9b7a2a" />
    </radialGradient>
    
    <pattern id="hatch" width="8" height="8" patternUnits="userSpaceOnUse" patternTransform="rotate(45)">
      <line x1="0" y1="0" x2="0" y2="8" stroke="#b8a87a" stroke-width="0.4" opacity="0.5" />
    </pattern>
    <pattern id="crosshatch" width="10" height="10" patternUnits="userSpaceOnUse">
      <line x1="0" y1="0" x2="10" y2="10" stroke="#9b8a60" stroke-width="0.3" opacity="0.4" />
      <line x1="10" y1="0" x2="0" y2="10" stroke="#9b8a60" stroke-width="0.3" opacity="0.4" />
    </pattern>
  </defs>

  
  <rect width="1536" height="1024" fill="url(#parchment)" />
  <rect width="1536" height="1024" fill="url(#hatch)" />

  
  <rect x="24" y="24" width="1488" height="976" fill="none" stroke="#7a6840" stroke-width="3" />
  <rect x="32" y="32" width="1472" height="960" fill="none" stroke="#7a6840" stroke-width="1" />

  
  
  <line x1="24" y1="80" x2="80" y2="24" stroke="#7a6840" stroke-width="1.5" />
  <line x1="24" y1="60" x2="60" y2="24" stroke="#7a6840" stroke-width="0.8" />
  
  <line x1="1512" y1="80" x2="1456" y2="24" stroke="#7a6840" stroke-width="1.5" />
  <line x1="1512" y1="60" x2="1476" y2="24" stroke="#7a6840" stroke-width="0.8" />
  
  <line x1="24" y1="944" x2="80" y2="1000" stroke="#7a6840" stroke-width="1.5" />
  <line x1="24" y1="964" x2="60" y2="1000" stroke="#7a6840" stroke-width="0.8" />
  
  <line x1="1512" y1="944" x2="1456" y2="1000" stroke="#7a6840" stroke-width="1.5" />
  <line x1="1512" y1="964" x2="1476" y2="1000" stroke="#7a6840" stroke-width="0.8" />

  
  <rect x="24" y="24" width="520" height="976" fill="url(#sidepanel)" opacity="0.92" />
  <rect x="24" y="24" width="520" height="976" fill="url(#crosshatch)" opacity="0.3" />

  
  <line x1="544" y1="24" x2="544" y2="1000" stroke="#7a6840" stroke-width="2" />
  <line x1="550" y1="24" x2="550" y2="1000" stroke="#7a6840" stroke-width="0.5" />

  
  
  <ellipse cx="1060" cy="540" rx="440" ry="380" fill="#b8cdd8" opacity="0.35" />

  
  
  <path d="     M 960,180     C 980,175 1000,172 1020,178     C 1060,188 1090,200 1110,220     C 1130,240 1140,265 1145,290     C 1150,315 1148,340 1140,365     C 1132,390 1118,412 1108,435     C 1098,458 1092,480 1090,505     C 1088,530 1092,555 1095,578     C 1098,601 1100,622 1098,645     C 1096,668 1088,690 1075,710     C 1062,730 1044,746 1025,758     C 1006,770 985,778 963,782     C 941,786 918,785 895,779     C 872,773 850,761 832,744     C 814,727 800,705 792,681     C 784,657 782,631 786,606     C 790,581 800,558 808,534     C 816,510 820,485 818,460     C 816,435 808,411 800,387     C 792,363 784,340 782,315     C 780,290 784,265 794,243     C 804,221 820,202 840,190     C 860,178 885,172 910,172     C 933,172 952,176 960,180 Z   " fill="#c8b98a" stroke="#7a6840" stroke-width="2.5" />

  
  <path d="M 920,240 C 940,300 950,360 945,420 C 940,480 925,530 920,590" fill="none" stroke="#9b8a60" stroke-width="1" opacity="0.6" />
  <path d="M 970,250 C 990,310 1000,370 995,430" fill="none" stroke="#9b8a60" stroke-width="0.8" opacity="0.5" />
  <path d="M 850,350 C 900,360 950,355 1000,370 C 1050,385 1090,400 1110,420" fill="none" stroke="#9b8a60" stroke-width="0.8" opacity="0.5" />
  <path d="M 830,480 C 870,470 920,465 970,470 C 1020,475 1060,490 1090,510" fill="none" stroke="#9b8a60" stroke-width="0.8" opacity="0.5" />

  
  <circle cx="940" cy="430" r="10" fill="#8b2020" stroke="#5a1010" stroke-width="2" />
  <circle cx="940" cy="430" r="4" fill="#fff" opacity="0.7" />
  
  <text x="958" y="435" font-family="Georgia, serif" font-size="18" fill="#5a1010" font-style="italic" letter-spacing="1">Seoul</text>

  
  <ellipse cx="960" cy="820" rx="28" ry="16" fill="#c8b98a" stroke="#7a6840" stroke-width="1.5" />
  <text x="960" y="855" font-family="Georgia, serif" font-size="14" fill="#5a4020" text-anchor="middle" font-style="italic">Geoje</text>

  
  <ellipse cx="810" cy="760" rx="18" ry="10" fill="#c8b98a" stroke="#7a6840" stroke-width="1.2" />
  <ellipse cx="870" cy="790" rx="12" ry="8" fill="#c8b98a" stroke="#7a6840" stroke-width="1.2" />
  <ellipse cx="1080" cy="640" rx="22" ry="12" fill="#c8b98a" stroke="#7a6840" stroke-width="1.2" />

  
  <ellipse cx="880" cy="870" rx="40" ry="22" fill="#c8b98a" stroke="#7a6840" stroke-width="1.5" />

  
  <path d="M 790,385 C 830,378 880,375 930,376 C 980,377 1030,382 1080,392 C 1110,398 1130,405 1145,412" fill="none" stroke="#8b2020" stroke-width="1.5" stroke-dasharray="8,5" opacity="0.7" />
  <text x="795" y="370" font-family="Georgia, serif" font-size="13" fill="#8b2020" opacity="0.8" font-style="italic">38th Parallel</text>

  
  <text x="965" y="310" font-family="Georgia, serif" font-size="14" fill="#5a4a2a" text-anchor="middle" opacity="0.7" letter-spacing="1">NORTH</text>
  <text x="940" y="600" font-family="Georgia, serif" font-size="14" fill="#5a4a2a" text-anchor="middle" opacity="0.8" letter-spacing="1">SOUTH</text>
  <text x="940" y="618" font-family="Georgia, serif" font-size="14" fill="#5a4a2a" text-anchor="middle" opacity="0.8" letter-spacing="1">KOREA</text>

  
  <g transform="translate(1340, 820)">
    
    <circle r="60" fill="none" stroke="#7a6840" stroke-width="1.5" />
    <circle r="54" fill="none" stroke="#7a6840" stroke-width="0.5" />
    
    <polygon points="0,-54 6,-30 -6,-30" fill="#3d5a47" />
    <polygon points="0,54 6,30 -6,30" fill="#7a6840" />
    <polygon points="54,0 30,6 30,-6" fill="#7a6840" />
    <polygon points="-54,0 -30,6 -30,-6" fill="#7a6840" />
    
    <polygon points="0,-54 3,-20 -3,-20" fill="#c9a84c" transform="rotate(45)" />
    <polygon points="0,-54 3,-20 -3,-20" fill="#c9a84c" transform="rotate(135)" />
    <polygon points="0,-54 3,-20 -3,-20" fill="#c9a84c" transform="rotate(225)" />
    <polygon points="0,-54 3,-20 -3,-20" fill="#c9a84c" transform="rotate(315)" />
    
    <circle r="8" fill="#c9a84c" stroke="#7a6840" stroke-width="1" />
    <circle r="3" fill="#3d5a47" />
    
    <text x="0" y="-62" font-family="Georgia, serif" font-size="16" font-weight="bold" fill="#3d5a47" text-anchor="middle">N</text>
    <text x="0" y="76" font-family="Georgia, serif" font-size="13" fill="#7a6840" text-anchor="middle">S</text>
    <text x="68" y="5" font-family="Georgia, serif" font-size="13" fill="#7a6840" text-anchor="middle">E</text>
    <text x="-68" y="5" font-family="Georgia, serif" font-size="13" fill="#7a6840" text-anchor="middle">W</text>
  </g>

  
  <g opacity="0.18" stroke="#4a6840" stroke-width="0.8">
    <line x1="555" y1="200" x2="1490" y2="200" />
    <line x1="555" y1="350" x2="1490" y2="350" />
    <line x1="555" y1="500" x2="1490" y2="500" />
    <line x1="555" y1="650" x2="1490" y2="650" />
    <line x1="555" y1="800" x2="1490" y2="800" />
    <line x1="700" y1="50" x2="700" y2="990" />
    <line x1="900" y1="50" x2="900" y2="990" />
    <line x1="1100" y1="50" x2="1100" y2="990" />
    <line x1="1300" y1="50" x2="1300" y2="990" />
  </g>

  
  <g transform="translate(284, 220)">
    <circle r="110" fill="url(#sealGrad)" opacity="0.25" />
    <circle r="105" fill="none" stroke="#c9a84c" stroke-width="2.5" />
    <circle r="88" fill="none" stroke="#c9a84c" stroke-width="1" />
    
    
    <circle r="50" fill="#2e4438" opacity="0.5" />
    <circle r="50" fill="none" stroke="#c9a84c" stroke-width="1.5" />
    
    <path d="M 0,-50 A 50,50 0 0,1 0,50 A 25,25 0 0,0 0,0 A 25,25 0 0,1 0,-50 Z" fill="#c9a84c" opacity="0.8" />
    <path d="M 0,50 A 50,50 0 0,1 0,-50 A 25,25 0 0,0 0,0 A 25,25 0 0,1 0,50 Z" fill="#8b2020" opacity="0.7" />
    <circle r="8" cy="-25" fill="#8b2020" opacity="0.9" />
    <circle r="8" cy="25" fill="#c9a84c" opacity="0.9" />
    
    <g fill="#c9a84c" opacity="0.7">
      
      <rect x="-22" y="-82" width="44" height="5" rx="1" />
      <rect x="-22" y="-73" width="19" height="5" rx="1" />
      <rect x="3" y="-73" width="19" height="5" rx="1" />
      <rect x="-22" y="-64" width="44" height="5" rx="1" />
      
      <rect x="64" y="-12" width="5" height="24" rx="1" />
      <rect x="73" y="-12" width="5" height="10" rx="1" />
      <rect x="73" y="2" width="5" height="10" rx="1" />
      <rect x="82" y="-12" width="5" height="24" rx="1" />
      
      <rect x="-22" y="59" width="44" height="5" rx="1" />
      <rect x="-22" y="68" width="44" height="5" rx="1" />
      <rect x="-22" y="77" width="19" height="5" rx="1" />
      <rect x="3" y="77" width="19" height="5" rx="1" />
      
      <rect x="-87" y="-12" width="5" height="24" rx="1" />
      <rect x="-78" y="-12" width="5" height="10" rx="1" />
      <rect x="-78" y="2" width="5" height="10" rx="1" />
      <rect x="-69" y="-12" width="5" height="24" rx="1" />
    </g>
    
    <text font-family="Georgia, serif" font-size="11" fill="#c9a84c" letter-spacing="3">
      <textPath href="#sealRing">대한민국 · REPUBLIC OF KOREA · PRESIDENT ·</textPath>
    </text>
    <defs>
      <path id="sealRing" d="M -96,0 A 96,96 0 1,1 96,0 A 96,96 0 1,1 -96,0" />
    </defs>
  </g>

  
  
  <text x="284" y="400" font-family="Georgia, serif" font-size="52" fill="#c9a84c" text-anchor="middle" letter-spacing="8" opacity="0.9">김영삼</text>
  <line x1="100" y1="415" x2="468" y2="415" stroke="#c9a84c" stroke-width="1" opacity="0.5" />

  
  <rect x="164" y="440" width="240" height="50" rx="4" fill="#c9a84c" opacity="0.15" />
  <rect x="164" y="440" width="240" height="50" rx="4" fill="none" stroke="#c9a84c" stroke-width="1.2" />
  <text x="284" y="473" font-family="Georgia, serif" font-size="20" fill="#c9a84c" text-anchor="middle" letter-spacing="2">14th PRESIDENT</text>

  
  <text x="284" y="540" font-family="Georgia, serif" font-size="28" fill="#e8dfc8" text-anchor="middle" letter-spacing="3" font-style="italic">1993 – 1998</text>

  
  <g opacity="0.5">
    <line x1="110" y1="565" x2="250" y2="565" stroke="#c9a84c" stroke-width="1" />
    <circle cx="284" cy="565" r="5" fill="#c9a84c" />
    <line x1="318" y1="565" x2="458" y2="565" stroke="#c9a84c" stroke-width="1" />
  </g>

  
  <text x="110" y="605" font-family="Georgia, serif" font-size="14" fill="#c9bc96" letter-spacing="1">▸ First civilian president</text>
  <text x="110" y="630" font-family="Georgia, serif" font-size="14" fill="#c9bc96" letter-spacing="1">▸ Real-Name Financial Reform</text>
  <text x="110" y="655" font-family="Georgia, serif" font-size="14" fill="#c9bc96" letter-spacing="1">▸ OECD accession (1996)</text>
  <text x="110" y="680" font-family="Georgia, serif" font-size="14" fill="#c9bc96" letter-spacing="1">▸ Segyehwa globalization</text>
  <text x="110" y="705" font-family="Georgia, serif" font-size="14" fill="#c9bc96" letter-spacing="1">▸ IMF crisis (1997)</text>

  
  <line x1="110" y1="730" x2="458" y2="730" stroke="#7a9070" stroke-width="0.8" />
  <text x="110" y="755" font-family="Georgia, serif" font-size="13" fill="#a0b890" font-style="italic">b. Dec 20, 1927 · Geoje Island</text>
  <text x="110" y="775" font-family="Georgia, serif" font-size="13" fill="#a0b890" font-style="italic">d. Nov 22, 2015 · Seoul</text>

  
  <text x="1040" y="115" font-family="Georgia, serif" font-size="19" fill="#5a4a2a" text-anchor="middle" letter-spacing="4" opacity="0.7">ATLAS OF KOREAN DEMOCRACY</text>
  <line x1="620" y1="128" x2="1490" y2="128" stroke="#7a6840" stroke-width="1" opacity="0.5" />

  
  
  <rect x="555" y="900" width="950" height="90" fill="#2e4438" opacity="0.88" />
  <rect x="555" y="900" width="950" height="90" fill="none" stroke="#7a6840" stroke-width="1" />

  <text x="1030" y="944" font-family="Georgia, serif" font-size="30" font-weight="bold" fill="#e8dfc8" text-anchor="middle" letter-spacing="2">Kim Young-sam</text>
  <text x="1030" y="975" font-family="Georgia, serif" font-size="15" fill="#c9a84c" text-anchor="middle" letter-spacing="3">Civilian-Led Democratic Consolidation · South Korea</text>

  
  <g transform="translate(630, 870)" opacity="0.7">
    <line x1="0" y1="0" x2="120" y2="0" stroke="#7a6840" stroke-width="1.5" />
    <line x1="0" y1="-5" x2="0" y2="5" stroke="#7a6840" stroke-width="1.5" />
    <line x1="60" y1="-3" x2="60" y2="3" stroke="#7a6840" stroke-width="1" />
    <line x1="120" y1="-5" x2="120" y2="5" stroke="#7a6840" stroke-width="1.5" />
    <text x="60" y="-10" font-family="Georgia, serif" font-size="11" fill="#7a6840" text-anchor="middle">scale</text>
  </g>

  
  <rect width="1536" height="1024" fill="url(#vignette)" />
</svg>