<svg xmlns="http://www.w3.org/2000/svg" viewBox="0 0 1536 1024" role="img" width="1536" height="1024">
  <title>Korean Literature and Literary Culture – Atlas Banner</title>
  <defs>
    <linearGradient id="parchment" x1="0" y1="0" x2="1" y2="1">
      <stop offset="0%" stop-color="#e8dcc8" />
      <stop offset="100%" stop-color="#d4c4a0" />
    </linearGradient>
    <linearGradient id="oceanGrad" x1="0" y1="0" x2="1" y2="1">
      <stop offset="0%" stop-color="#b8cdd8" />
      <stop offset="100%" stop-color="#9ab8c8" />
    </linearGradient>
    <linearGradient id="landGrad" x1="0" y1="0" x2="0" y2="1">
      <stop offset="0%" stop-color="#c8b888" />
      <stop offset="100%" stop-color="#b8a870" />
    </linearGradient>
    <linearGradient id="darkPanel" x1="0" y1="0" x2="1" y2="0">
      <stop offset="0%" stop-color="#3a2e1e" />
      <stop offset="100%" stop-color="#4a3c28" />
    </linearGradient>
    <pattern id="gridLines" width="40" height="40" patternUnits="userSpaceOnUse">
      <path d="M 40 0 L 0 0 0 40" fill="none" stroke="#a89860" stroke-width="0.4" opacity="0.5" />
    </pattern>
    <pattern id="hatch" width="6" height="6" patternUnits="userSpaceOnUse" patternTransform="rotate(45)">
      <line x1="0" y1="0" x2="0" y2="6" stroke="#8a7848" stroke-width="0.5" opacity="0.3" />
    </pattern>
  </defs>

  
  <rect width="1536" height="1024" fill="url(#parchment)" />
  
  <rect width="1536" height="1024" fill="url(#gridLines)" />

  
  <rect x="700" y="0" width="836" height="1024" fill="url(#oceanGrad)" opacity="0.6" />

  
  <g stroke="#7a9aaa" stroke-width="0.6" opacity="0.5" fill="none">
    <line x1="700" y1="200" x2="1536" y2="200" />
    <line x1="700" y1="350" x2="1536" y2="350" />
    <line x1="700" y1="500" x2="1536" y2="500" />
    <line x1="700" y1="650" x2="1536" y2="650" />
    <line x1="700" y1="800" x2="1536" y2="800" />
  </g>
  
  <g stroke="#7a9aaa" stroke-width="0.6" opacity="0.5" fill="none">
    <line x1="850" y1="0" x2="850" y2="1024" />
    <line x1="1000" y1="0" x2="1000" y2="1024" />
    <line x1="1150" y1="0" x2="1150" y2="1024" />
    <line x1="1300" y1="0" x2="1300" y2="1024" />
    <line x1="1450" y1="0" x2="1450" y2="1024" />
  </g>

  
  <path d="M 0,0 L 780,0 L 820,80 L 860,120 L 880,200 L 840,280 L 800,340 L 780,420 L 760,500 L 720,580 L 680,640 L 640,700 L 600,760 L 560,800 L 520,840 L 480,880 L 440,920 L 400,960 L 360,1000 L 0,1024 Z" fill="url(#landGrad)" opacity="0.85" />
  
  <path d="M 0,0 L 780,0 L 820,80 L 860,120 L 880,200 L 840,280 L 800,340 L 780,420 L 760,500 L 720,580 L 680,640 L 640,700 L 600,760 L 560,800 L 520,840 L 480,880 L 440,920 L 400,960 L 360,1000 L 0,1024 Z" fill="url(#hatch)" opacity="0.4" />

  
  <path d="M 780,0 L 820,80 L 860,120 L 880,200 L 840,280 L 800,340 L 780,420 L 760,500 L 720,580 L 680,640 L 640,700 L 600,760 L 560,800 L 520,840 L 480,880 L 440,920 L 400,960 L 360,1000" fill="none" stroke="#8a7040" stroke-width="1.5" />

  
  
  <g transform="translate(920, 280)">
    
    <path d="M 60,0 L 90,10 L 110,30 L 120,60 L 115,100 L 110,140 L 100,180 L 85,220 L 70,260 L 60,290 L 50,310 L 45,330 L 55,340 L 65,330 L 70,310 L 80,300 L 85,320 L 78,345 L 65,360 L 50,355 L 35,340 L 30,315 L 35,280 L 25,250 L 15,210 L 10,170 L 8,130 L 12,90 L 20,55 L 35,25 L 50,8 Z" fill="#c8a860" stroke="#8a6830" stroke-width="2" />
    
    <path d="M 60,0 L 90,10 L 110,30 L 120,60 L 115,100 L 110,140 L 100,180 L 85,220 L 70,260 L 60,290 L 50,310 L 45,330 L 55,340 L 65,330 L 70,310 L 80,300 L 85,320 L 78,345 L 65,360 L 50,355 L 35,340 L 30,315 L 35,280 L 25,250 L 15,210 L 10,170 L 8,130 L 12,90 L 20,55 L 35,25 L 50,8 Z" fill="url(#hatch)" opacity="0.5" />
    
    <ellipse cx="45" cy="390" rx="18" ry="10" fill="#c8a860" stroke="#8a6830" stroke-width="1.5" />
    
    <text x="65" y="175" font-family="serif" font-size="22" fill="#4a3010" text-anchor="middle" font-style="italic" opacity="0.9">한국</text>
  </g>

  
  <g transform="translate(1100, 200)" opacity="0.7">
    <path d="M 40,0 L 55,20 L 60,50 L 50,90 L 35,130 L 20,160 L 10,180 L 5,195 L 15,190 L 30,165 L 45,140 L 58,100 L 65,65 L 62,30 L 50,10 Z" fill="#c0a870" stroke="#8a6830" stroke-width="1.2" />
    <path d="M 70,180 L 85,200 L 95,230 L 90,260 L 75,275 L 60,265 L 55,240 L 60,210 Z" fill="#c0a870" stroke="#8a6830" stroke-width="1.2" />
    <text x="70" y="120" font-family="serif" font-size="14" fill="#4a3010" text-anchor="middle" font-style="italic" opacity="0.8">Japan</text>
  </g>

  
  <text x="500" y="380" font-family="serif" font-size="28" fill="#5a4020" text-anchor="middle" font-style="italic" opacity="0.6">China</text>

  
  <text x="1060" y="430" font-family="serif" font-size="16" fill="#3a5868" text-anchor="middle" font-style="italic" opacity="0.8">Sea of</text>
  <text x="1060" y="452" font-family="serif" font-size="16" fill="#3a5868" text-anchor="middle" font-style="italic" opacity="0.8">Japan</text>

  
  <text x="840" y="520" font-family="serif" font-size="15" fill="#3a5868" text-anchor="middle" font-style="italic" opacity="0.8">Yellow</text>
  <text x="840" y="540" font-family="serif" font-size="15" fill="#3a5868" text-anchor="middle" font-style="italic" opacity="0.8">Sea</text>

  
  <g transform="translate(180, 400)">
    
    <rect x="0" y="0" width="120" height="160" rx="4" fill="#d4b870" stroke="#8a6830" stroke-width="2" />
    <rect x="8" y="8" width="104" height="144" rx="2" fill="#e8d090" stroke="#a08040" stroke-width="1" />
    
    <line x1="20" y1="30" x2="100" y2="30" stroke="#8a6830" stroke-width="1.5" opacity="0.7" />
    <line x1="20" y1="45" x2="100" y2="45" stroke="#8a6830" stroke-width="1.5" opacity="0.7" />
    <line x1="20" y1="60" x2="100" y2="60" stroke="#8a6830" stroke-width="1.5" opacity="0.7" />
    <line x1="20" y1="75" x2="80" y2="75" stroke="#8a6830" stroke-width="1.5" opacity="0.7" />
    
    <text x="60" y="120" font-family="serif" font-size="32" fill="#4a3010" text-anchor="middle" font-weight="bold">文</text>
    
    <ellipse cx="60" cy="0" rx="60" ry="8" fill="#c8a850" stroke="#8a6030" stroke-width="1.5" />
    <ellipse cx="60" cy="160" rx="60" ry="8" fill="#c8a850" stroke="#8a6030" stroke-width="1.5" />
  </g>

  
  <g transform="translate(330, 420)">
    <rect x="0" y="0" width="100" height="140" rx="4" fill="#c8b060" stroke="#8a6830" stroke-width="1.5" opacity="0.8" />
    <rect x="7" y="7" width="86" height="126" rx="2" fill="#e0c880" opacity="0.8" />
    <line x1="18" y1="28" x2="82" y2="28" stroke="#8a6830" stroke-width="1.2" opacity="0.6" />
    <line x1="18" y1="42" x2="82" y2="42" stroke="#8a6830" stroke-width="1.2" opacity="0.6" />
    <line x1="18" y1="56" x2="82" y2="56" stroke="#8a6830" stroke-width="1.2" opacity="0.6" />
    <line x1="18" y1="70" x2="66" y2="70" stroke="#8a6830" stroke-width="1.2" opacity="0.6" />
    <text x="50" y="108" font-family="serif" font-size="26" fill="#4a3010" text-anchor="middle">학</text>
    <ellipse cx="50" cy="0" rx="50" ry="7" fill="#b89840" stroke="#8a5830" stroke-width="1.2" opacity="0.8" />
    <ellipse cx="50" cy="140" rx="50" ry="7" fill="#b89840" stroke="#8a5830" stroke-width="1.2" opacity="0.8" />
  </g>

  
  <g transform="translate(1380, 780)">
    
    <circle cx="0" cy="0" r="80" fill="none" stroke="#7a6040" stroke-width="1.5" opacity="0.8" />
    <circle cx="0" cy="0" r="65" fill="none" stroke="#7a6040" stroke-width="0.8" opacity="0.6" />
    
    
    <polygon points="0,-65 -8,-35 0,-45 8,-35" fill="#5a3a1a" opacity="0.9" />
    
    <polygon points="0,65 -8,35 0,45 8,35" fill="#9a8060" opacity="0.9" />
    
    <polygon points="65,0 35,-8 45,0 35,8" fill="#9a8060" opacity="0.9" />
    
    <polygon points="-65,0 -35,-8 -45,0 -35,8" fill="#9a8060" opacity="0.9" />
    
    <polygon points="46,-46 28,-20 20,-28" fill="#7a6040" opacity="0.7" />
    <polygon points="46,46 20,28 28,20" fill="#7a6040" opacity="0.7" />
    <polygon points="-46,46 -28,20 -20,28" fill="#7a6040" opacity="0.7" />
    <polygon points="-46,-46 -20,-28 -28,-20" fill="#7a6040" opacity="0.7" />
    
    <circle cx="0" cy="0" r="8" fill="#5a3a1a" opacity="0.9" />
    <circle cx="0" cy="0" r="4" fill="#d4b860" />
    
    <text x="0" y="-72" font-family="serif" font-size="16" fill="#3a2a10" text-anchor="middle" font-weight="bold">N</text>
    <text x="0" y="88" font-family="serif" font-size="14" fill="#5a4020" text-anchor="middle">S</text>
    <text x="78" y="5" font-family="serif" font-size="14" fill="#5a4020" text-anchor="middle">E</text>
    <text x="-78" y="5" font-family="serif" font-size="14" fill="#5a4020" text-anchor="middle">W</text>
  </g>

  
  <g transform="translate(1000, 330)" opacity="0.8">
    
    <polygon points="0,-22 5,-8 20,-8 9,2 13,18 0,9 -13,18 -9,2 -20,-8 -5,-8" fill="#c8a020" stroke="#8a6010" stroke-width="1" />
    <circle cx="0" cy="0" r="8" fill="#e8c840" />
  </g>

  
  <rect x="20" y="20" width="1496" height="984" fill="none" stroke="#7a6040" stroke-width="3" rx="4" />
  <rect x="30" y="30" width="1476" height="964" fill="none" stroke="#7a6040" stroke-width="1" rx="2" opacity="0.5" />

  
  <g stroke="#7a6040" stroke-width="1.5" fill="none" opacity="0.7">
    <path d="M 20,60 L 20,20 L 60,20" />
    <path d="M 1476,20 L 1516,20 L 1516,60" />
    <path d="M 20,964 L 20,1004 L 60,1004" />
    <path d="M 1476,1004 L 1516,1004 L 1516,964" />
  </g>

  
  <rect x="40" y="60" width="620" height="320" rx="4" fill="url(#darkPanel)" opacity="0.88" />

  
  <text x="80" y="145" font-family="Georgia, 'Times New Roman', serif" font-size="58" fill="#f0e0b0" font-weight="bold" letter-spacing="1">Korean</text>
  <text x="80" y="215" font-family="Georgia, 'Times New Roman', serif" font-size="58" fill="#f0e0b0" font-weight="bold" letter-spacing="1">Literature</text>
  <text x="80" y="278" font-family="Georgia, 'Times New Roman', serif" font-size="36" fill="#d4b870" letter-spacing="2">&amp; Literary Culture</text>

  
  <text x="80" y="330" font-family="serif" font-size="32" fill="#c8a840" letter-spacing="4">한국문학</text>

  
  <line x1="80" y1="355" x2="580" y2="355" stroke="#c8a840" stroke-width="1.5" opacity="0.7" />

  
  <text x="80" y="420" font-family="Georgia, serif" font-size="18" fill="#4a3010" font-style="italic" opacity="0.85">Two millennia of poetry, prose &amp; philosophy</text>
  <text x="80" y="448" font-family="Georgia, serif" font-size="18" fill="#4a3010" font-style="italic" opacity="0.85">from the Three Kingdoms to Han Kang's Nobel Prize</text>

  
  <g transform="translate(80, 490)" opacity="0.7">
    <rect x="0" y="0" width="220" height="60" rx="3" fill="#c8b070" stroke="#8a6830" stroke-width="1" />
    <text x="10" y="20" font-family="serif" font-size="11" fill="#3a2a10" font-style="italic">향가 (Hyangga)</text>
    <line x1="10" y1="27" x2="210" y2="27" stroke="#8a6830" stroke-width="0.8" />
    <text x="10" y="42" font-family="serif" font-size="12" fill="#3a2010">Native songs · c. 57 BCE–935 CE</text>
    <text x="10" y="56" font-family="serif" font-size="11" fill="#5a3010">25 examples survive in Samguk Yusa</text>
  </g>

  
  <g transform="translate(80, 940)" opacity="0.7">
    <line x1="0" y1="0" x2="200" y2="0" stroke="#5a4020" stroke-width="2" />
    <line x1="0" y1="-6" x2="0" y2="6" stroke="#5a4020" stroke-width="1.5" />
    <line x1="100" y1="-4" x2="100" y2="4" stroke="#5a4020" stroke-width="1.5" />
    <line x1="200" y1="-6" x2="200" y2="6" stroke="#5a4020" stroke-width="1.5" />
    <text x="0" y="18" font-family="serif" font-size="12" fill="#4a3010">0</text>
    <text x="88" y="18" font-family="serif" font-size="12" fill="#4a3010">500 km</text>
    <text x="175" y="18" font-family="serif" font-size="12" fill="#4a3010">1000 km</text>
  </g>

  
  <rect x="40" y="940" width="1456" height="44" rx="2" fill="#3a2e1e" opacity="0.15" />
  <text x="768" y="968" font-family="Georgia, serif" font-size="15" fill="#4a3010" text-anchor="middle" font-style="italic" opacity="0.75">
    From ancient hyangga to the 2024 Nobel Prize — Korea's literary tradition spans more than two millennia
  </text>

  
  <g stroke="#5a7a8a" stroke-width="1" fill="none" opacity="0.35">
    <path d="M 750,600 Q 780,590 810,600 Q 840,610 870,600 Q 900,590 930,600" />
    <path d="M 750,620 Q 780,610 810,620 Q 840,630 870,620 Q 900,610 930,620" />
    <path d="M 750,640 Q 780,630 810,640 Q 840,650 870,640 Q 900,630 930,640" />
  </g>

</svg>