<svg xmlns="http://www.w3.org/2000/svg" viewBox="0 0 1536 1024" role="img" width="1536" height="1024">
  <title>Korean Football and Professional Leagues</title>
  <defs>
    <linearGradient id="bg" x1="0" y1="0" x2="1" y2="1">
      <stop offset="0%" stop-color="#e8dfc8" />
      <stop offset="100%" stop-color="#d4c9a8" />
    </linearGradient>
    <linearGradient id="sea" x1="0" y1="0" x2="0" y2="1">
      <stop offset="0%" stop-color="#a8bfc9" />
      <stop offset="100%" stop-color="#8fadb8" />
    </linearGradient>
    <linearGradient id="land" x1="0" y1="0" x2="1" y2="1">
      <stop offset="0%" stop-color="#c8b98a" />
      <stop offset="100%" stop-color="#b8a870" />
    </linearGradient>
    <linearGradient id="korea" x1="0" y1="0" x2="1" y2="1">
      <stop offset="0%" stop-color="#c0392b" />
      <stop offset="100%" stop-color="#96281b" />
    </linearGradient>
    <filter id="tex" x="0" y="0" width="100%" height="100%">
      <feTurbulence type="fractalNoise" baseFrequency="0.65" numOctaves="3" result="noise" />
      <feColorMatrix type="saturate" values="0" in="noise" result="grayNoise" />
      <feBlend in="SourceGraphic" in2="grayNoise" mode="multiply" result="blend" />
    </filter>
    <pattern id="grid" width="60" height="60" patternUnits="userSpaceOnUse">
      <path d="M60,0 L0,0 0,60" fill="none" stroke="#b8a870" stroke-width="0.5" opacity="0.4" />
    </pattern>
  </defs>

  
  <rect width="1536" height="1024" fill="url(#bg)" />
  <rect width="1536" height="1024" fill="url(#grid)" />

  
  <rect x="0" y="0" width="1536" height="1024" fill="url(#sea)" opacity="0.25" />

  
  <rect x="18" y="18" width="1500" height="988" fill="none" stroke="#7a6840" stroke-width="3" />
  <rect x="26" y="26" width="1484" height="972" fill="none" stroke="#7a6840" stroke-width="1" />

  
  <rect width="1536" height="1024" fill="#d4c9a8" opacity="0.3" filter="url(#tex)" />

  
  
  <path d="M400,180 L580,160 L720,170 L820,190 L880,240 L900,310 L860,380 L820,440 L780,500 L720,560 L660,580 L600,560 L540,520 L480,480 L430,430 L390,370 L370,300 L380,240 Z" fill="url(#land)" stroke="#8a7a50" stroke-width="1.5" />

  
  <path d="M500,160 L680,140 L750,155 L720,170 L580,160 Z" fill="#c4b484" stroke="#8a7a50" stroke-width="1" />

  
  <path d="M900,280 L920,270 L935,285 L925,310 L910,320 L895,305 Z" fill="#c8b98a" stroke="#8a7a50" stroke-width="1.2" />
  <path d="M905,330 L920,320 L938,340 L945,370 L930,390 L915,385 L900,360 L898,340 Z" fill="#c8b98a" stroke="#8a7a50" stroke-width="1.2" />

  
  <path d="M840,290 L865,285 L880,300 L882,330 L872,365 L858,395 L845,415 L832,420 L820,405 L815,375 L818,340 L828,310 Z" fill="url(#korea)" stroke="#6b1a12" stroke-width="2" />

  
  <text x="848" y="360" font-family="Georgia, serif" font-size="13" fill="#fff" text-anchor="middle" font-weight="bold" opacity="0.9">KOREA</text>

  
  <text x="810" y="350" font-family="Georgia, serif" font-size="10" fill="#5a7a8a" text-anchor="middle" font-style="italic" transform="rotate(-10,810,350)">Yellow</text>
  <text x="810" y="362" font-family="Georgia, serif" font-size="10" fill="#5a7a8a" text-anchor="middle" font-style="italic" transform="rotate(-10,810,362)">Sea</text>
  <text x="920" y="350" font-family="Georgia, serif" font-size="10" fill="#5a7a8a" text-anchor="middle" font-style="italic">Sea of</text>
  <text x="920" y="362" font-family="Georgia, serif" font-size="10" fill="#5a7a8a" text-anchor="middle" font-style="italic">Japan</text>

  
  
  <g transform="translate(1150,500)">
    <circle r="200" fill="#f0e8d0" stroke="#5a4a28" stroke-width="3" />
    
    
    <polygon points="0,-55 52,-18 32,47 -32,47 -52,-18" fill="#2c2c2c" stroke="#2c2c2c" stroke-width="1" />
    
    <polygon points="0,-110 52,-73 32,-8 -32,-8 -52,-73" fill="#2c2c2c" stroke="#2c2c2c" stroke-width="1" opacity="0.7" />
    <polygon points="93,-30 145,7 125,72 73,72 21,7" fill="#2c2c2c" stroke="#2c2c2c" stroke-width="1" opacity="0.7" />
    <polygon points="57,80 109,117 89,182 37,182 -15,117" fill="#2c2c2c" stroke="#2c2c2c" stroke-width="1" opacity="0.7" />
    <polygon points="-57,80 -5,117 -25,182 -77,182 -109,117" fill="#2c2c2c" stroke="#2c2c2c" stroke-width="1" opacity="0.7" />
    <polygon points="-93,-30 -21,7 -41,72 -93,72 -145,7" fill="#2c2c2c" stroke="#2c2c2c" stroke-width="1" opacity="0.7" />
    
    <line x1="0" y1="-55" x2="0" y2="-110" stroke="#2c2c2c" stroke-width="1.5" />
    <line x1="52" y1="-18" x2="93" y2="-30" stroke="#2c2c2c" stroke-width="1.5" />
    <line x1="32" y1="47" x2="57" y2="80" stroke="#2c2c2c" stroke-width="1.5" />
    <line x1="-32" y1="47" x2="-57" y2="80" stroke="#2c2c2c" stroke-width="1.5" />
    <line x1="-52" y1="-18" x2="-93" y2="-30" stroke="#2c2c2c" stroke-width="1.5" />
    
    <circle r="200" fill="none" stroke="#5a4a28" stroke-width="3" />
    
    <ellipse cx="-55" cy="-80" rx="35" ry="22" fill="#fff" opacity="0.18" transform="rotate(-30,-55,-80)" />
  </g>

  
  <g transform="translate(1420,120)">
    <circle r="48" fill="#d4c9a8" stroke="#7a6840" stroke-width="1.5" />
    <circle r="35" fill="none" stroke="#7a6840" stroke-width="1" />
    
    <polygon points="0,-42 6,-18 0,-24 -6,-18" fill="#7a6840" />
    <polygon points="0,42 6,18 0,24 -6,18" fill="#7a6840" />
    <polygon points="42,0 18,6 24,0 18,-6" fill="#7a6840" />
    <polygon points="-42,0 -18,6 -24,0 -18,-6" fill="#7a6840" />
    
    <polygon points="30,-30 14,-10 18,-14 10,-18" fill="#9a8860" opacity="0.8" />
    <polygon points="30,30 14,10 18,14 10,18" fill="#9a8860" opacity="0.8" />
    <polygon points="-30,30 -14,10 -18,14 -10,18" fill="#9a8860" opacity="0.8" />
    <polygon points="-30,-30 -14,-10 -18,-14 -10,-18" fill="#9a8860" opacity="0.8" />
    <circle r="5" fill="#7a6840" />
    <text x="0" y="-52" font-family="Georgia, serif" font-size="13" fill="#5a4a28" text-anchor="middle" font-weight="bold">N</text>
  </g>

  
  
  <line x1="60" y1="200" x2="1000" y2="200" stroke="#8a7a50" stroke-width="0.5" opacity="0.5" stroke-dasharray="8,6" />
  <line x1="60" y1="350" x2="1000" y2="350" stroke="#8a7a50" stroke-width="0.5" opacity="0.5" stroke-dasharray="8,6" />
  <line x1="60" y1="500" x2="1000" y2="500" stroke="#8a7a50" stroke-width="0.5" opacity="0.5" stroke-dasharray="8,6" />
  
  <line x1="300" y1="100" x2="300" y2="900" stroke="#8a7a50" stroke-width="0.5" opacity="0.5" stroke-dasharray="8,6" />
  <line x1="550" y1="100" x2="550" y2="900" stroke="#8a7a50" stroke-width="0.5" opacity="0.5" stroke-dasharray="8,6" />
  <line x1="800" y1="100" x2="800" y2="900" stroke="#8a7a50" stroke-width="0.5" opacity="0.5" stroke-dasharray="8,6" />

  
  <g transform="translate(200,480)">
    
    <path d="M0,-90 L65,-60 L65,30 L0,80 L-65,30 L-65,-60 Z" fill="#c0392b" stroke="#6b1a12" stroke-width="2.5" />
    <path d="M0,-75 L52,-50 L52,25 L0,68 L-52,25 L-52,-50 Z" fill="none" stroke="#e8dfc8" stroke-width="1.5" />
    
    <polygon points="0,-45 8,-20 35,-20 13,-5 21,22 0,8 -21,22 -13,-5 -35,-20 -8,-20" fill="#f0e8d0" />
    
    <text x="0" y="52" font-family="Georgia, serif" font-size="11" fill="#f0e8d0" text-anchor="middle" font-weight="bold">1983</text>
  </g>

  
  <circle cx="500" cy="820" r="22" fill="#e8dfc8" stroke="#5a4a28" stroke-width="2" />
  <polygon points="500,798 508,806 505,817 495,817 492,806" fill="#3a3a3a" />
  <circle cx="560" cy="840" r="16" fill="#e8dfc8" stroke="#5a4a28" stroke-width="1.5" />
  <polygon points="560,824 566,829 564,836 556,836 554,829" fill="#3a3a3a" />

  
  <g transform="translate(848,440)">
    <circle r="14" fill="#e8b84b" stroke="#a07830" stroke-width="1.5" />
    <text x="0" y="4" font-family="Georgia, serif" font-size="9" fill="#5a3a10" text-anchor="middle" font-weight="bold">2002</text>
  </g>
  <line x1="848" y1="420" x2="848" y2="454" stroke="#a07830" stroke-width="1.5" />

  
  
  <rect x="60" y="620" width="980" height="350" fill="#2c2010" opacity="0.82" rx="4" />
  <rect x="66" y="626" width="968" height="338" fill="none" stroke="#7a6840" stroke-width="1" rx="2" />

  
  <text x="100" y="678" font-family="Georgia, serif" font-size="18" fill="#c8b070" letter-spacing="5" text-anchor="start">ATLAS OF SPORT &amp; CULTURE</text>

  
  <text x="100" y="748" font-family="Georgia, serif" font-size="72" fill="#f0e8d0" font-weight="bold" text-anchor="start">Korean Football</text>
  <text x="100" y="826" font-family="Georgia, serif" font-size="72" fill="#f0e8d0" font-weight="bold" text-anchor="start">&amp; Professional</text>
  <text x="100" y="904" font-family="Georgia, serif" font-size="72" fill="#c0392b" font-weight="bold" text-anchor="start">Leagues</text>

  
  <line x1="100" y1="916" x2="750" y2="916" stroke="#c8b070" stroke-width="1.5" />
  <line x1="100" y1="922" x2="400" y2="922" stroke="#c8b070" stroke-width="0.8" opacity="0.6" />

  
  <text x="100" y="950" font-family="Georgia, serif" font-size="16" fill="#a09068" letter-spacing="2">KFA EST. 1948  ·  K LEAGUE FOUNDED 1983  ·  FIFA WORLD CUP 2002</text>

  
  <line x1="400" y1="580" x2="1050" y2="580" stroke="#8a7a50" stroke-width="0.4" opacity="0.4" />
  <line x1="400" y1="590" x2="1050" y2="590" stroke="#8a7a50" stroke-width="0.4" opacity="0.3" />
  <line x1="400" y1="600" x2="1050" y2="600" stroke="#8a7a50" stroke-width="0.4" opacity="0.2" />

  
  <rect x="18" y="18" width="250" height="8" fill="#c0392b" />
  <rect x="268" y="18" width="250" height="8" fill="#2c2c2c" />
  <rect x="518" y="18" width="250" height="8" fill="#c0392b" />

</svg>