<svg xmlns="http://www.w3.org/2000/svg" viewBox="0 0 1536 1024" role="img" width="1536" height="1024">
  <title>Korean Tech Startups and Venture Capital Ecosystem — Atlas Banner</title>

  <defs>
    
    <linearGradient id="parchment" x1="0" y1="0" x2="1" y2="1">
      <stop offset="0%" stop-color="#e8dfc8" />
      <stop offset="50%" stop-color="#ddd0b0" />
      <stop offset="100%" stop-color="#c9bc98" />
    </linearGradient>

    
    <linearGradient id="panelGrad" x1="0" y1="0" x2="1" y2="0">
      <stop offset="0%" stop-color="#1a3a2a" stop-opacity="0.92" />
      <stop offset="100%" stop-color="#1a3a2a" stop-opacity="0.80" />
    </linearGradient>

    
    <linearGradient id="seaGrad" x1="0" y1="0" x2="0" y2="1">
      <stop offset="0%" stop-color="#b8c9d4" />
      <stop offset="100%" stop-color="#9eb5c2" />
    </linearGradient>

    
    <linearGradient id="arrowGrad" x1="0" y1="1" x2="1" y2="0">
      <stop offset="0%" stop-color="#c8922a" />
      <stop offset="100%" stop-color="#e8b84a" />
    </linearGradient>

    
    <pattern id="hatch" patternUnits="userSpaceOnUse" width="8" height="8" patternTransform="rotate(30)">
      <line x1="0" y1="0" x2="0" y2="8" stroke="#a09070" stroke-width="0.4" stroke-opacity="0.35" />
    </pattern>

    
    <pattern id="seaLines" patternUnits="userSpaceOnUse" width="10" height="10">
      <line x1="0" y1="5" x2="10" y2="5" stroke="#7a9aaa" stroke-width="0.5" stroke-opacity="0.4" />
    </pattern>

    
    <radialGradient id="nodeGlow" cx="50%" cy="50%" r="50%">
      <stop offset="0%" stop-color="#e8b84a" stop-opacity="0.8" />
      <stop offset="100%" stop-color="#e8b84a" stop-opacity="0" />
    </radialGradient>

    
    <radialGradient id="seoulGlow" cx="50%" cy="50%" r="50%">
      <stop offset="0%" stop-color="#c8922a" stop-opacity="1" />
      <stop offset="60%" stop-color="#e8b84a" stop-opacity="0.5" />
      <stop offset="100%" stop-color="#e8b84a" stop-opacity="0" />
    </radialGradient>

    <clipPath id="bannerClip">
      <rect width="1536" height="1024" />
    </clipPath>
  </defs>

  
  <rect width="1536" height="1024" fill="url(#parchment)" />
  <rect width="1536" height="1024" fill="url(#hatch)" opacity="0.6" />

  
  <rect x="18" y="18" width="1500" height="988" fill="none" stroke="#8a7550" stroke-width="3" opacity="0.7" />
  <rect x="28" y="28" width="1480" height="968" fill="none" stroke="#8a7550" stroke-width="1" opacity="0.4" />

  
  <rect x="520" y="0" width="1016" height="1024" fill="url(#seaGrad)" opacity="0.45" />
  <rect x="520" y="0" width="1016" height="1024" fill="url(#seaLines)" opacity="0.6" />

  
  
  <path d="M 520,0 L 520,1024 L 200,1024 L 200,800 L 300,750 L 340,680 L 320,580 L 360,500 L 400,450 L 430,370 L 410,280 L 450,200 L 480,100 L 520,0 Z" fill="#c8b88a" opacity="0.9" />
  <path d="M 520,0 L 520,1024 L 200,1024 L 200,800 L 300,750 L 340,680 L 320,580 L 360,500 L 400,450 L 430,370 L 410,280 L 450,200 L 480,100 L 520,0 Z" fill="url(#hatch)" opacity="0.5" />

  
  
  <ellipse cx="1050" cy="560" rx="28" ry="36" fill="#c8b88a" opacity="0.9" transform="rotate(-20,1050,560)" />
  
  <ellipse cx="1095" cy="500" rx="38" ry="18" fill="#c8b88a" opacity="0.9" transform="rotate(-15,1095,500)" />
  
  <path d="M 1060,420 Q 1120,360 1180,300 Q 1230,250 1260,210 Q 1290,180 1300,160 Q 1280,175 1250,195 Q 1210,225 1170,270 Q 1130,320 1090,375 Q 1065,405 1055,430 Z" fill="#c8b88a" opacity="0.9" />
  
  <ellipse cx="1250" cy="200" rx="55" ry="30" fill="#c8b88a" opacity="0.9" transform="rotate(-10,1250,200)" />

  
  
  <path d="     M 700,220     L 730,230     L 760,240     L 780,260     L 790,290     L 800,330     L 805,370     L 808,420     L 810,470     L 808,520     L 800,560     L 790,590     L 775,615     L 760,635     L 745,650     L 730,665     L 715,680     L 700,690     L 688,700     L 678,710     L 670,720     L 660,715     L 648,705     L 635,690     L 620,675     L 608,658     L 598,638     L 592,615     L 590,590     L 592,560     L 598,525     L 605,480     L 608,430     L 606,380     L 600,340     L 595,310     L 598,280     L 610,260     L 630,245     L 660,232     L 685,222     Z   " fill="#b8a870" stroke="#8a7550" stroke-width="2.5" />
  <path d="     M 700,220     L 730,230     L 760,240     L 780,260     L 790,290     L 800,330     L 805,370     L 808,420     L 810,470     L 808,520     L 800,560     L 790,590     L 775,615     L 760,635     L 745,650     L 730,665     L 715,680     L 700,690     L 688,700     L 678,710     L 670,720     L 660,715     L 648,705     L 635,690     L 620,675     L 608,658     L 598,638     L 592,615     L 590,590     L 592,560     L 598,525     L 605,480     L 608,430     L 606,380     L 600,340     L 595,310     L 598,280     L 610,260     L 630,245     L 660,232     L 685,222     Z   " fill="url(#hatch)" opacity="0.6" />

  
  <line x1="598" y1="390" x2="808" y2="390" stroke="#5a4a30" stroke-width="2" stroke-dasharray="6,4" opacity="0.7" />

  
  <text x="700" y="325" text-anchor="middle" font-family="Georgia, serif" font-size="13" fill="#5a4a30" letter-spacing="1" opacity="0.8">NORTH KOREA</text>

  
  <path d="     M 598,392     L 808,392     L 810,470     L 808,520     L 800,560     L 790,590     L 775,615     L 760,635     L 745,650     L 730,665     L 715,680     L 700,690     L 688,700     L 678,710     L 670,720     L 660,715     L 648,705     L 635,690     L 620,675     L 608,658     L 598,638     L 592,615     L 590,590     L 592,560     L 598,525     L 605,480     L 608,430     L 606,380     Z   " fill="#c8b870" stroke="none" opacity="0.5" />

  
  <text x="700" y="510" text-anchor="middle" font-family="Georgia, serif" font-size="14" fill="#3a2a10" letter-spacing="2" font-weight="bold" opacity="0.9">SOUTH KOREA</text>

  
  <ellipse cx="645" cy="760" rx="26" ry="16" fill="#b8a870" stroke="#8a7550" stroke-width="1.5" />

  
  <text x="490" y="620" text-anchor="middle" font-family="Georgia, serif" font-size="13" fill="#4a6a78" letter-spacing="1" opacity="0.75" transform="rotate(-15,490,620)">YELLOW SEA</text>

  
  <text x="920" y="480" text-anchor="middle" font-family="Georgia, serif" font-size="13" fill="#4a6a78" letter-spacing="1" opacity="0.75" transform="rotate(0,920,480)">SEA OF JAPAN</text>

  
  
  <circle cx="680" cy="450" r="45" fill="url(#seoulGlow)" opacity="0.6" />
  
  <circle cx="680" cy="450" r="12" fill="#c8922a" stroke="#3a2a10" stroke-width="2" />
  <circle cx="680" cy="450" r="6" fill="#f0d060" />
  
  <text x="700" y="442" font-family="Georgia, serif" font-size="15" fill="#1a0a00" font-weight="bold">Seoul</text>
  <text x="700" y="458" font-family="Georgia, serif" font-size="10" fill="#3a2a10" letter-spacing="0.5">Capital · Startup Hub</text>

  
  <circle cx="695" cy="478" r="7" fill="#8a6a20" stroke="#3a2a10" stroke-width="1.5" />
  <text x="707" y="483" font-family="Georgia, serif" font-size="11" fill="#3a2a10">Pangyo</text>

  
  <circle cx="750" cy="620" r="7" fill="#6a7a50" stroke="#3a2a10" stroke-width="1.5" />
  <text x="762" y="625" font-family="Georgia, serif" font-size="11" fill="#3a2a10">Busan</text>

  
  
  <line x1="680" y1="450" x2="900" y2="380" stroke="#c8922a" stroke-width="1.5" stroke-dasharray="8,5" opacity="0.7" />
  <line x1="680" y1="450" x2="960" y2="300" stroke="#c8922a" stroke-width="1.5" stroke-dasharray="8,5" opacity="0.6" />
  <line x1="680" y1="450" x2="1050" y2="420" stroke="#c8922a" stroke-width="1.5" stroke-dasharray="8,5" opacity="0.6" />
  <line x1="680" y1="450" x2="980" y2="560" stroke="#c8922a" stroke-width="1.5" stroke-dasharray="8,5" opacity="0.5" />
  <line x1="680" y1="450" x2="870" y2="600" stroke="#c8922a" stroke-width="1.2" stroke-dasharray="8,5" opacity="0.5" />
  
  <line x1="680" y1="450" x2="510" y2="350" stroke="#c8922a" stroke-width="1.2" stroke-dasharray="8,5" opacity="0.45" />
  <line x1="680" y1="450" x2="540" y2="500" stroke="#c8922a" stroke-width="1.2" stroke-dasharray="8,5" opacity="0.45" />

  
  <circle cx="900" cy="380" r="18" fill="url(#nodeGlow)" />
  <circle cx="900" cy="380" r="8" fill="#e8b84a" stroke="#8a6020" stroke-width="1.5" />

  <circle cx="960" cy="300" r="15" fill="url(#nodeGlow)" />
  <circle cx="960" cy="300" r="7" fill="#e8b84a" stroke="#8a6020" stroke-width="1.5" />

  <circle cx="1050" cy="420" r="20" fill="url(#nodeGlow)" />
  <circle cx="1050" cy="420" r="9" fill="#e8b84a" stroke="#8a6020" stroke-width="1.5" />

  <circle cx="980" cy="560" r="14" fill="url(#nodeGlow)" />
  <circle cx="980" cy="560" r="6" fill="#e8b84a" stroke="#8a6020" stroke-width="1.5" />

  <circle cx="870" cy="600" r="14" fill="url(#nodeGlow)" />
  <circle cx="870" cy="600" r="6" fill="#e8b84a" stroke="#8a6020" stroke-width="1.5" />

  <circle cx="510" cy="350" r="14" fill="url(#nodeGlow)" />
  <circle cx="510" cy="350" r="6" fill="#e8b84a" stroke="#8a6020" stroke-width="1.5" />

  <circle cx="540" cy="500" r="14" fill="url(#nodeGlow)" />
  <circle cx="540" cy="500" r="6" fill="#e8b84a" stroke="#8a6020" stroke-width="1.5" />

  
  
  <rect x="1080" y="620" width="380" height="300" rx="4" fill="#1a2a1a" opacity="0.15" stroke="#8a7550" stroke-width="1" />
  
  <line x1="1110" y1="890" x2="1430" y2="890" stroke="#8a7550" stroke-width="2" opacity="0.7" />
  <line x1="1110" y1="890" x2="1110" y2="650" stroke="#8a7550" stroke-width="2" opacity="0.7" />
  
  <line x1="1175" y1="890" x2="1175" y2="900" stroke="#8a7550" stroke-width="1.5" opacity="0.7" />
  <line x1="1240" y1="890" x2="1240" y2="900" stroke="#8a7550" stroke-width="1.5" opacity="0.7" />
  <line x1="1305" y1="890" x2="1305" y2="900" stroke="#8a7550" stroke-width="1.5" opacity="0.7" />
  <line x1="1370" y1="890" x2="1370" y2="900" stroke="#8a7550" stroke-width="1.5" opacity="0.7" />
  
  <text x="1160" y="916" font-family="Georgia, serif" font-size="12" fill="#5a4a30" text-anchor="middle">2010</text>
  <text x="1240" y="916" font-family="Georgia, serif" font-size="12" fill="#5a4a30" text-anchor="middle">2015</text>
  <text x="1305" y="916" font-family="Georgia, serif" font-size="12" fill="#5a4a30" text-anchor="middle">2018</text>
  <text x="1375" y="916" font-family="Georgia, serif" font-size="12" fill="#5a4a30" text-anchor="middle">2023</text>
  
  <polyline points="1120,878 1175,868 1240,845 1290,810 1340,760 1390,700 1420,665" fill="none" stroke="url(#arrowGrad)" stroke-width="3" stroke-linecap="round" stroke-linejoin="round" />
  
  <polygon points="1420,665 1408,675 1415,682" fill="#e8b84a" />
  <polygon points="1420,665 1430,660 1428,672" fill="#e8b84a" />
  
  <polyline points="1120,890 1120,878 1175,868 1240,845 1290,810 1340,760 1390,700 1420,665 1420,890" fill="#c8922a" fill-opacity="0.12" stroke="none" />
  
  <text x="1270" y="645" text-anchor="middle" font-family="Georgia, serif" font-size="13" fill="#5a4a30" letter-spacing="1">VC INVESTMENT GROWTH</text>
  
  <text x="1093" y="780" text-anchor="middle" font-family="Georgia, serif" font-size="11" fill="#5a4a30" transform="rotate(-90,1093,780)">Capital (USD)</text>

  
  <g transform="translate(1380,160)">
    
    <circle cx="0" cy="0" r="65" fill="none" stroke="#8a7550" stroke-width="1.5" opacity="0.6" />
    <circle cx="0" cy="0" r="55" fill="none" stroke="#8a7550" stroke-width="0.8" opacity="0.4" />
    
    <g stroke="#8a7550" stroke-width="1" opacity="0.5">
      <line x1="0" y1="-55" x2="0" y2="-65" />
      <line x1="0" y1="55" x2="0" y2="65" />
      <line x1="-55" y1="0" x2="-65" y2="0" />
      <line x1="55" y1="0" x2="65" y2="0" />
      <line x1="-39" y1="-39" x2="-46" y2="-46" />
      <line x1="39" y1="-39" x2="46" y2="-46" />
      <line x1="-39" y1="39" x2="-46" y2="46" />
      <line x1="39" y1="39" x2="46" y2="46" />
    </g>
    
    <polygon points="0,-48 -8,-10 0,-18 8,-10" fill="#3a2a10" />
    
    <polygon points="0,48 -8,10 0,18 8,10" fill="#8a7550" />
    
    <polygon points="48,0 10,-8 18,0 10,8" fill="#8a7550" />
    
    <polygon points="-48,0 -10,-8 -18,0 -10,8" fill="#8a7550" />
    
    <circle cx="0" cy="0" r="6" fill="#c8922a" stroke="#3a2a10" stroke-width="1.5" />
    
    <text x="0" y="-52" text-anchor="middle" font-family="Georgia, serif" font-size="14" font-weight="bold" fill="#3a2a10">N</text>
    <text x="0" y="68" text-anchor="middle" font-family="Georgia, serif" font-size="12" fill="#5a4a30">S</text>
    <text x="72" y="5" text-anchor="middle" font-family="Georgia, serif" font-size="12" fill="#5a4a30">E</text>
    <text x="-72" y="5" text-anchor="middle" font-family="Georgia, serif" font-size="12" fill="#5a4a30">W</text>
  </g>

  
  <rect x="0" y="0" width="520" height="1024" fill="url(#panelGrad)" />
  
  <line x1="520" y1="0" x2="520" y2="1024" stroke="#c8922a" stroke-width="2.5" />
  <rect x="38" y="38" width="464" height="948" fill="none" stroke="#c8922a" stroke-width="1" opacity="0.4" />

  
  <line x1="68" y1="160" x2="452" y2="160" stroke="#c8922a" stroke-width="1" opacity="0.5" />
  <line x1="68" y1="165" x2="452" y2="165" stroke="#c8922a" stroke-width="0.5" opacity="0.3" />
  <line x1="68" y1="780" x2="452" y2="780" stroke="#c8922a" stroke-width="1" opacity="0.5" />

  
  <g transform="translate(260,102)">
    <circle cx="0" cy="0" r="36" fill="none" stroke="#c8922a" stroke-width="1.5" opacity="0.6" />
    
    <path d="M -36,0 A 36,36 0 0,1 36,0 A 18,18 0 0,1 0,0 A 18,18 0 0,0 -36,0 Z" fill="#c8922a" opacity="0.5" />
    <path d="M 36,0 A 36,36 0 0,1 -36,0 A 18,18 0 0,1 0,0 A 18,18 0 0,0 36,0 Z" fill="#e8dfc8" opacity="0.3" />
    <circle cx="0" cy="-18" r="6" fill="#c8922a" opacity="0.7" />
    <circle cx="0" cy="18" r="6" fill="#e8dfc8" opacity="0.5" />
    <circle cx="0" cy="0" r="36" fill="none" stroke="#c8922a" stroke-width="1.5" opacity="0.6" />
  </g>

  
  <text x="260" y="212" text-anchor="middle" font-family="Georgia, serif" font-size="13" fill="#e8c870" letter-spacing="4" opacity="0.85">ATLAS OF INNOVATION</text>

  
  <text x="260" y="310" text-anchor="middle" font-family="Georgia, serif" font-size="54" font-weight="bold" fill="#f0e8c8" letter-spacing="-1">KOREAN</text>
  
  <text x="260" y="375" text-anchor="middle" font-family="Georgia, serif" font-size="40" font-weight="bold" fill="#f0e8c8" letter-spacing="1">TECH STARTUPS</text>
  
  <text x="260" y="430" text-anchor="middle" font-family="Georgia, serif" font-size="28" fill="#c8922a">&amp;</text>
  
  <text x="260" y="490" text-anchor="middle" font-family="Georgia, serif" font-size="36" font-weight="bold" fill="#f0e8c8" letter-spacing="0">VENTURE CAPITAL</text>
  
  <text x="260" y="540" text-anchor="middle" font-family="Georgia, serif" font-size="20" fill="#c8b870" letter-spacing="2">ECOSYSTEM</text>

  
  <line x1="120" y1="565" x2="400" y2="565" stroke="#c8922a" stroke-width="1.5" opacity="0.7" />
  <line x1="200" y1="572" x2="320" y2="572" stroke="#c8922a" stroke-width="0.8" opacity="0.4" />

  
  <text x="260" y="618" text-anchor="middle" font-family="Georgia, serif" font-size="14" fill="#b8a870" letter-spacing="0.5" opacity="0.9">A dynamic &amp; global innovation engine</text>
  <text x="260" y="640" text-anchor="middle" font-family="Georgia, serif" font-size="14" fill="#b8a870" opacity="0.9">driving unicorns from Seoul to the world</text>

  
  <text x="130" y="700" font-family="Georgia, serif" font-size="13" fill="#c8922a" letter-spacing="1" opacity="0.9">SECTORS</text>
  <line x1="130" y1="706" x2="390" y2="706" stroke="#c8922a" stroke-width="0.8" opacity="0.5" />

  
  <g font-family="Georgia, serif" font-size="12" fill="#d0c090" opacity="0.85">
    <text x="130" y="730">◆ Fintech</text>
    <text x="280" y="730">◆ E-Commerce</text>
    <text x="130" y="752">◆ Online Gaming</text>
    <text x="280" y="752">◆ AI &amp; SaaS</text>
    <text x="130" y="774">◆ Biotech</text>
    <text x="280" y="774">◆ Deep Tech</text>
  </g>

  
  <rect x="100" y="808" width="320" height="80" rx="4" fill="#c8922a" fill-opacity="0.12" stroke="#c8922a" stroke-width="1" stroke-opacity="0.5" />
  <text x="260" y="838" text-anchor="middle" font-family="Georgia, serif" font-size="36" font-weight="bold" fill="#e8b84a">🦄</text>
  <text x="260" y="838" text-anchor="middle" font-family="Georgia, serif" font-size="11" fill="#c8b870" dy="24" letter-spacing="1">UNICORN STARTUP ECOSYSTEM</text>

  
  <text x="260" y="960" text-anchor="middle" font-family="Georgia, serif" font-size="11" fill="#8a7a50" letter-spacing="2" opacity="0.7">SEOUL · GANGNAM · PANGYO</text>

  
  
  <line x1="520" y1="256" x2="1500" y2="256" stroke="#7a9aaa" stroke-width="0.5" stroke-dasharray="4,8" opacity="0.3" />
  <line x1="520" y1="512" x2="1500" y2="512" stroke="#7a9aaa" stroke-width="0.5" stroke-dasharray="4,8" opacity="0.3" />
  <line x1="520" y1="768" x2="1500" y2="768" stroke="#7a9aaa" stroke-width="0.5" stroke-dasharray="4,8" opacity="0.3" />
  
  <line x1="700" y1="0" x2="700" y2="1024" stroke="#7a9aaa" stroke-width="0.5" stroke-dasharray="4,8" opacity="0.2" />
  <line x1="900" y1="0" x2="900" y2="1024" stroke="#7a9aaa" stroke-width="0.5" stroke-dasharray="4,8" opacity="0.2" />
  <line x1="1100" y1="0" x2="1100" y2="1024" stroke="#7a9aaa" stroke-width="0.5" stroke-dasharray="4,8" opacity="0.2" />
  <line x1="1300" y1="0" x2="1300" y2="1024" stroke="#7a9aaa" stroke-width="0.5" stroke-dasharray="4,8" opacity="0.2" />

  
  <text x="528" y="252" font-family="Georgia, serif" font-size="10" fill="#5a7a88" opacity="0.6">38°N</text>
  <text x="528" y="508" font-family="Georgia, serif" font-size="10" fill="#5a7a88" opacity="0.6">34°N</text>

  
  <g transform="translate(760, 940)">
    <line x1="0" y1="0" x2="120" y2="0" stroke="#5a4a30" stroke-width="2" opacity="0.7" />
    <line x1="0" y1="-5" x2="0" y2="5" stroke="#5a4a30" stroke-width="1.5" opacity="0.7" />
    <line x1="60" y1="-4" x2="60" y2="4" stroke="#5a4a30" stroke-width="1" opacity="0.6" />
    <line x1="120" y1="-5" x2="120" y2="5" stroke="#5a4a30" stroke-width="1.5" opacity="0.7" />
    <text x="60" y="-10" text-anchor="middle" font-family="Georgia, serif" font-size="11" fill="#5a4a30" opacity="0.8">200 km</text>
    <text x="0" y="18" text-anchor="middle" font-family="Georgia, serif" font-size="10" fill="#5a4a30" opacity="0.6">0</text>
    <text x="120" y="18" text-anchor="middle" font-family="Georgia, serif" font-size="10" fill="#5a4a30" opacity="0.6">400</text>
  </g>

  
  
  <text x="895" y="368" font-family="Georgia, serif" font-size="11" fill="#3a2a10" text-anchor="middle" opacity="0.8">Fintech</text>
  <text x="953" y="290" font-family="Georgia, serif" font-size="11" fill="#3a2a10" text-anchor="middle" opacity="0.8">AI</text>
  <text x="1050" y="408" font-family="Georgia, serif" font-size="11" fill="#3a2a10" text-anchor="middle" opacity="0.8">Gaming</text>
  <text x="975" y="548" font-family="Georgia, serif" font-size="11" fill="#3a2a10" text-anchor="middle" opacity="0.8">Biotech</text>

  
  <g transform="translate(1160, 100)">
    <polygon points="0,-50 14,-16 50,-16 22,6 34,40 0,18 -34,40 -22,6 -50,-16 -14,-16" fill="#c8922a" opacity="0.85" stroke="#8a6020" stroke-width="1.5" />
    <text x="0" y="-8" text-anchor="middle" font-family="Georgia, serif" font-size="22" font-weight="bold" fill="#f0e8c8">22+</text>
    <text x="0" y="10" text-anchor="middle" font-family="Georgia, serif" font-size="9" fill="#f0e8c8" letter-spacing="0.5">UNICORNS</text>
  </g>

  
  <text x="820" y="440" font-family="Georgia, serif" font-size="11" fill="#3a2a10" opacity="0.75" font-style="italic">Naver · Kakao · Krafton</text>
  <text x="820" y="456" font-family="Georgia, serif" font-size="11" fill="#3a2a10" opacity="0.75" font-style="italic">Coupang · Krafton</text>

  
  <rect x="18" y="18" width="1500" height="988" fill="none" stroke="#c8922a" stroke-width="0.8" opacity="0.3" />
</svg>