<svg xmlns="http://www.w3.org/2000/svg" viewBox="0 0 1536 1024" role="img" width="1536" height="1024">
  <title>Lee Jae-yong — Chairman of Samsung Electronics, South Korea</title>
  <defs>
    <linearGradient id="bg" x1="0" y1="0" x2="1" y2="1">
      <stop offset="0%" stop-color="#e8dfc8" />
      <stop offset="100%" stop-color="#d4c9a8" />
    </linearGradient>
    <linearGradient id="ocean" x1="0" y1="0" x2="1" y2="1">
      <stop offset="0%" stop-color="#b8cdd6" />
      <stop offset="100%" stop-color="#9ab5c2" />
    </linearGradient>
    <linearGradient id="landgrad" x1="0" y1="0" x2="0" y2="1">
      <stop offset="0%" stop-color="#c8b98a" />
      <stop offset="100%" stop-color="#b8a870" />
    </linearGradient>
    <filter id="engrave">
      <feTurbulence type="fractalNoise" baseFrequency="0.65" numOctaves="3" result="noise" />
      <feColorMatrix type="saturate" values="0" in="noise" result="grayNoise" />
      <feBlend in="SourceGraphic" in2="grayNoise" mode="multiply" result="blend" />
      <feComposite in="blend" in2="SourceGraphic" operator="in" />
    </filter>
    <pattern id="grid" width="40" height="40" patternUnits="userSpaceOnUse">
      <path d="M 40 0 L 0 0 0 40" fill="none" stroke="#9a8a60" stroke-width="0.4" opacity="0.4" />
    </pattern>
    <pattern id="latlon" width="80" height="60" patternUnits="userSpaceOnUse">
      <line x1="0" y1="30" x2="80" y2="30" stroke="#8a7a55" stroke-width="0.3" opacity="0.35" />
      <line x1="40" y1="0" x2="40" y2="60" stroke="#8a7a55" stroke-width="0.3" opacity="0.35" />
    </pattern>
  </defs>

  
  <rect width="1536" height="1024" fill="url(#bg)" />
  <rect width="1536" height="1024" fill="url(#latlon)" />

  
  <rect x="80" y="80" width="1376" height="864" rx="4" fill="url(#ocean)" opacity="0.7" />
  <rect x="80" y="80" width="1376" height="864" rx="4" fill="url(#grid)" opacity="0.5" />

  
  <rect x="80" y="80" width="1376" height="864" rx="4" fill="none" stroke="#7a6a40" stroke-width="3" />
  <rect x="90" y="90" width="1356" height="844" rx="2" fill="none" stroke="#7a6a40" stroke-width="1" opacity="0.5" />

  
  
  <path d="M 400,180 L 560,160 L 700,170 L 820,200 L 900,240 L 940,300 L 960,380 L 920,440 L 880,480 L 820,500 L 760,520 L 700,510 L 640,490 L 580,460 L 520,420 L 460,380 L 420,340 L 380,290 L 370,240 Z" fill="url(#landgrad)" stroke="#8a7a50" stroke-width="1.5" />

  
  <path d="M 880,340 L 920,330 L 950,350 L 960,390 L 950,430 L 930,470 L 910,510 L 890,540 L 870,560 L 855,545 L 850,510 L 860,470 L 865,430 L 860,390 L 855,360 Z" fill="#c4956a" stroke="#8a7a50" stroke-width="1.5" />

  
  <path d="M 855,470 L 870,460 L 900,455 L 930,465 L 945,490 L 940,520 L 920,545 L 895,558 L 870,555 L 852,540 L 848,515 L 850,490 Z" fill="#c0392b" stroke="#8a2020" stroke-width="2" opacity="0.85" />

  
  <ellipse cx="1010" cy="380" rx="18" ry="60" fill="url(#landgrad)" stroke="#8a7a50" stroke-width="1.2" transform="rotate(-20, 1010, 380)" />
  <ellipse cx="1040" cy="460" rx="12" ry="40" fill="url(#landgrad)" stroke="#8a7a50" stroke-width="1.2" transform="rotate(-25, 1040, 460)" />
  <ellipse cx="1055" cy="510" rx="10" ry="28" fill="url(#landgrad)" stroke="#8a7a50" stroke-width="1.2" transform="rotate(-30, 1055, 510)" />

  
  <text x="780" y="430" font-family="Georgia, serif" font-size="14" fill="#4a5a6a" opacity="0.7" font-style="italic" text-anchor="middle">Yellow Sea</text>

  
  <circle cx="893" cy="490" r="10" fill="#8b1a1a" stroke="#fff" stroke-width="2" />
  <circle cx="893" cy="490" r="5" fill="#fff" />
  
  <text x="920" y="483" font-family="Georgia, serif" font-size="15" fill="#3a2a10" font-weight="bold">Seoul</text>

  
  <g transform="translate(1340, 740)">
    <circle r="52" fill="#d4c9a8" stroke="#7a6a40" stroke-width="2" />
    <circle r="42" fill="none" stroke="#7a6a40" stroke-width="0.8" />
    
    <polygon points="0,-42 -8,-20 0,-28 8,-20" fill="#8b1a1a" />
    
    <polygon points="0,42 -8,20 0,28 8,20" fill="#7a6a40" />
    
    <polygon points="42,0 20,-8 28,0 20,8" fill="#7a6a40" />
    
    <polygon points="-42,0 -20,-8 -28,0 -20,8" fill="#7a6a40" />
    <text x="0" y="-50" text-anchor="middle" font-family="Georgia, serif" font-size="14" font-weight="bold" fill="#3a2a10">N</text>
    <text x="0" y="64" text-anchor="middle" font-family="Georgia, serif" font-size="14" font-weight="bold" fill="#3a2a10">S</text>
    <text x="58" y="5" text-anchor="middle" font-family="Georgia, serif" font-size="14" font-weight="bold" fill="#3a2a10">E</text>
    <text x="-58" y="5" text-anchor="middle" font-family="Georgia, serif" font-size="14" font-weight="bold" fill="#3a2a10">W</text>
    <circle r="5" fill="#8b1a1a" />
  </g>

  
  <g transform="translate(1100, 620)" opacity="0.85">
    <rect x="-55" y="-55" width="110" height="110" rx="8" fill="#d4c9a8" stroke="#7a6a40" stroke-width="2" />
    <rect x="-35" y="-35" width="70" height="70" rx="4" fill="none" stroke="#8b1a1a" stroke-width="2" />
    <rect x="-20" y="-20" width="40" height="40" rx="2" fill="#8b1a1a" opacity="0.7" />
    
    <line x1="-55" y1="-25" x2="-35" y2="-25" stroke="#7a6a40" stroke-width="2" />
    <line x1="-55" y1="-10" x2="-35" y2="-10" stroke="#7a6a40" stroke-width="2" />
    <line x1="-55" y1="5" x2="-35" y2="5" stroke="#7a6a40" stroke-width="2" />
    <line x1="-55" y1="20" x2="-35" y2="20" stroke="#7a6a40" stroke-width="2" />
    <line x1="55" y1="-25" x2="35" y2="-25" stroke="#7a6a40" stroke-width="2" />
    <line x1="55" y1="-10" x2="35" y2="-10" stroke="#7a6a40" stroke-width="2" />
    <line x1="55" y1="5" x2="35" y2="5" stroke="#7a6a40" stroke-width="2" />
    <line x1="55" y1="20" x2="35" y2="20" stroke="#7a6a40" stroke-width="2" />
    <line x1="-25" y1="-55" x2="-25" y2="-35" stroke="#7a6a40" stroke-width="2" />
    <line x1="0" y1="-55" x2="0" y2="-35" stroke="#7a6a40" stroke-width="2" />
    <line x1="25" y1="-55" x2="25" y2="-35" stroke="#7a6a40" stroke-width="2" />
    <line x1="-25" y1="55" x2="-25" y2="35" stroke="#7a6a40" stroke-width="2" />
    <line x1="0" y1="55" x2="0" y2="35" stroke="#7a6a40" stroke-width="2" />
    <line x1="25" y1="55" x2="25" y2="35" stroke="#7a6a40" stroke-width="2" />
  </g>

  
  <g transform="translate(130, 650)" opacity="0.9">
    <text x="10" y="0" font-family="Georgia, serif" font-size="13" fill="#5a4a2a" font-style="italic">Dynasty</text>
    
    <rect x="0" y="10" width="120" height="36" rx="3" fill="#c8b98a" stroke="#7a6a40" stroke-width="1.2" />
    <text x="60" y="26" text-anchor="middle" font-family="Georgia, serif" font-size="11" fill="#3a2a10">Lee Byung-chul</text>
    <text x="60" y="40" text-anchor="middle" font-family="Georgia, serif" font-size="10" fill="#5a4a2a">Founder</text>
    <line x1="60" y1="46" x2="60" y2="62" stroke="#8b1a1a" stroke-width="1.5" stroke-dasharray="3,2" />
    <rect x="0" y="62" width="120" height="36" rx="3" fill="#c8b98a" stroke="#7a6a40" stroke-width="1.2" />
    <text x="60" y="78" text-anchor="middle" font-family="Georgia, serif" font-size="11" fill="#3a2a10">Lee Kun-hee</text>
    <text x="60" y="92" text-anchor="middle" font-family="Georgia, serif" font-size="10" fill="#5a4a2a">2nd Generation</text>
    <line x1="60" y1="98" x2="60" y2="114" stroke="#8b1a1a" stroke-width="1.5" stroke-dasharray="3,2" />
    <rect x="0" y="114" width="120" height="36" rx="3" fill="#8b1a1a" stroke="#5a0a0a" stroke-width="1.5" />
    <text x="60" y="130" text-anchor="middle" font-family="Georgia, serif" font-size="11" fill="#fff" font-weight="bold">Lee Jae-yong</text>
    <text x="60" y="144" text-anchor="middle" font-family="Georgia, serif" font-size="10" fill="#f0c0a0">Chairman</text>
  </g>

  
  <rect x="80" y="80" width="520" height="220" rx="4" fill="#d8cc9a" opacity="0.75" />

  
  <text x="130" y="170" font-family="Georgia, serif" font-size="72" font-weight="bold" fill="#2a1a08" letter-spacing="-1">Lee Jae-yong</text>
  <text x="132" y="172" font-family="Georgia, serif" font-size="72" font-weight="bold" fill="none" stroke="#8b1a1a" stroke-width="0.5" letter-spacing="-1" opacity="0.3">Lee Jae-yong</text>

  
  <text x="132" y="222" font-family="serif" font-size="32" fill="#8b1a1a" opacity="0.9">이재용</text>

  
  <text x="132" y="268" font-family="Georgia, serif" font-size="22" fill="#4a3a18" font-style="italic">Chairman, Samsung Electronics</text>

  
  <text x="132" y="300" font-family="Georgia, serif" font-size="16" fill="#5a4a28">b. January 25, 1968 · Seoul, South Korea</text>

  
  <rect x="80" y="888" width="1376" height="56" fill="#8b1a1a" opacity="0.85" />
  <text x="130" y="922" font-family="Georgia, serif" font-size="18" fill="#f0e0c0" letter-spacing="3">SAMSUNG GROUP · CHAEBOL · SOUTH KOREAN INDUSTRY · SEMICONDUCTORS</text>

  
  <g transform="translate(200, 820)">
    <line x1="0" y1="0" x2="120" y2="0" stroke="#5a4a2a" stroke-width="2" />
    <line x1="0" y1="-5" x2="0" y2="5" stroke="#5a4a2a" stroke-width="2" />
    <line x1="60" y1="-3" x2="60" y2="3" stroke="#5a4a2a" stroke-width="1.5" />
    <line x1="120" y1="-5" x2="120" y2="5" stroke="#5a4a2a" stroke-width="2" />
    <text x="0" y="18" font-family="Georgia, serif" font-size="11" fill="#5a4a2a">0</text>
    <text x="52" y="18" font-family="Georgia, serif" font-size="11" fill="#5a4a2a">500</text>
    <text x="105" y="18" font-family="Georgia, serif" font-size="11" fill="#5a4a2a">1000 km</text>
  </g>

  
  <path d="M 893,490 Q 1150,350 1350,300" fill="none" stroke="#8b1a1a" stroke-width="1.5" stroke-dasharray="6,4" opacity="0.5" />
  <path d="M 893,490 Q 750,600 500,650" fill="none" stroke="#8b1a1a" stroke-width="1.5" stroke-dasharray="6,4" opacity="0.5" />
  <text x="1260" y="290" font-family="Georgia, serif" font-size="13" fill="#3a2a10" font-style="italic" opacity="0.8">Pacific Markets</text>
  <text x="490" y="670" font-family="Georgia, serif" font-size="13" fill="#3a2a10" font-style="italic" opacity="0.8">Global Supply Chain</text>

  
  <rect x="1310" y="88" width="138" height="32" rx="3" fill="#8b1a1a" />
  <text x="1379" y="109" text-anchor="middle" font-family="Georgia, serif" font-size="15" fill="#f0e0c0" letter-spacing="1">PEOPLE</text>
</svg>